<svg xmlns="http://www.w3.org/2000/svg" version="1.1" xmlns:xlink="http://www.w3.org/1999/xlink" xmlns:svgjs="http://svgjs.dev/svgjs" width="1000" height="932" viewBox="0 0 1000 932"><g transform="matrix(1,0,0,1,-0.2970362258955106,0.3773279352226382)"><svg viewBox="0 0 265 247" data-background-color="#ffffff" preserveAspectRatio="xMidYMid meet" height="932" width="1000" xmlns="http://www.w3.org/2000/svg" xmlns:xlink="http://www.w3.org/1999/xlink"><g id="tight-bounds" transform="matrix(1,0,0,1,0.07871459986230889,-0.09999999999999432)"><svg viewBox="0 0 264.84257072580664 247.2" height="247.2" width="264.84257072580664"><g><svg viewBox="0 0 395.52 369.17231143034246" height="247.2" width="264.84257072580664"><g transform="matrix(1,0,0,1,0,257.3267250762779)"><svg viewBox="0 0 395.52 111.84558635406455" height="111.84558635406455" width="395.52"><g id="textblocktransform"><svg viewBox="0 0 395.52 111.84558635406455" height="111.84558635406455" width="395.52" id="textblock"><g><rect width="75.54432000000001" height="5.678019332725682" y="91.99697439496886" fill="#0080ff" data-fill-palette-color="tertiary"></rect><rect width="75.54432000000001" height="5.678019332725682" y="91.99697439496886" x="319.97567999999995" fill="#0080ff" data-fill-palette-color="tertiary"></rect></g><g><svg viewBox="0 0 395.52 62.96245681381958" height="62.96245681381958" width="395.52"><g transform="matrix(1,0,0,1,0,0)"><svg width="395.52" viewBox="2.809999942779541 -32.400001525878906 203.5 32.400001525878906" height="62.96245681381958" data-palette-color="#0080ff"><path d="M13.4 0L2.81 0 2.81-32.4 13.4-32.4 13.4 0ZM22.95-25.93L15.11-25.93 15.11-32.4 27.22-32.4 33.69-25.93 33.69-14.82 27.22-8.33 15.11-8.33 15.11-14.82 22.95-14.82 22.95-25.93ZM69.48-32.4L69.48-6.47 63.01 0 54.69 0 54.69-6.47 58.69-6.47 58.69-32.4 69.48-32.4ZM49-32.4L49-6.47 52.98-6.47 52.98 0 44.68 0 38.18-6.47 38.18-32.4 49-32.4ZM85.74 0L74.95 0 74.95-32.4 85.74-32.4 85.74 0ZM102.58 0L87.45 0 87.45-6.47 92.79-6.47 92.79-10.57 102.58-10.57 102.58 0ZM116.18-32.4L116.18 0 111.88 0 105.39-6.47 105.39-25.93 111.88-32.4 116.18-32.4ZM125.07-25.93L117.89-25.93 117.89-32.4 129.39-32.4 135.86-25.93 135.86-19.41 125.07-19.41 125.07-25.93ZM129.39 0L117.89 0 117.89-6.47 125.07-6.47 125.07-11.21 135.86-11.21 135.86-6.47 129.39 0ZM162.15-13.31L151.82-13.31 151.82 0 141.03 0 141.03-32.4 151.82-32.4 151.82-19.56 162.15-19.56 162.15-13.31ZM160.24-26.12L153.53-26.12 153.53-32.4 170.4-32.4 170.4-23.02 160.24-23.02 160.24-26.12ZM170.4 0L153.53 0 153.53-6.47 159.61-6.47 159.61-9.72 170.4-9.72 170.4 0ZM185.63-25.83L185.63-6.59 189.68-6.59 189.68 0 181.38 0 174.82-6.47 174.82-25.93 181.38-32.4 189.68-32.4 189.68-25.83 185.63-25.83ZM195.52-6.59L195.52-25.83 191.39-25.83 191.39-32.4 199.77-32.4 206.31-25.93 206.31-6.47 199.77 0 191.39 0 191.39-6.59 195.52-6.59Z" opacity="1" transform="matrix(1,0,0,1,0,0)" fill="#0080ff" class="wordmark-text-0" data-fill-palette-color="primary" id="text-0"></path></svg></g></svg></g><g transform="matrix(1,0,0,1,75.54432000000001,77.82638176859885)"><svg viewBox="0 0 244.43135999999996 34.0192045854657" height="34.0192045854657" width="244.43135999999996"><g transform="matrix(1,0,0,1,8,0)"><svg width="228.43135999999996" viewBox="2.4000000953674316 -33.650001525878906 293.07000732421875 43.650001525878906" height="34.0192045854657" data-palette-color="#0023ff"><path d="M11.05-30.2L2.4-30.2 2.4-32.75 22.5-32.75 22.5-30.2 13.8-30.2 13.8 0 11.05 0 11.05-30.2ZM28.35-11.85Q28.35-17.6 30.72-20.83 33.1-24.05 37.65-24.05 42.2-24.05 44.42-21.05 46.65-18.05 46.65-13.05L46.65-13.05 46.5-10.55 31.2-10.55Q31.45-6.8 33.2-4.48 34.95-2.15 38.02-2.15 41.1-2.15 45.25-3.6L45.25-3.6 46-1.1Q41.95 0.45 38.4 0.45L38.4 0.45Q33.5 0.45 30.92-2.83 28.35-6.1 28.35-11.85ZM37.85-21.5L37.85-21.5Q31.55-21.5 31.2-13.05L31.2-13.05 43.8-13.05Q43.8-21.5 37.85-21.5ZM51.75-23.75L54.25-23.75 54.4-22.25Q56.9-24.05 58.25-24.05L58.25-24.05Q61.55-24.05 62.8-21.9L62.8-21.9Q65.59-24.05 67.7-24.05L67.7-24.05Q70.95-24.05 72.15-22.05 73.34-20.05 73.34-15.9L73.34-15.9 73.34 0 70.7 0 70.7-15.9Q70.7-18.75 70.09-20.13 69.5-21.5 67.8-21.5 66.09-21.5 63.6-19.9L63.6-19.9Q63.9-18.2 63.9-15.9L63.9-15.9 63.9-7.6 61.25-7.6 61.25-15.9Q61.25-18.75 60.65-20.1L60.65-20.1Q60-21.5 58.3-21.5 56.6-21.5 54.4-19.9L54.4-19.9 54.4 0 51.75 0 51.75-23.75ZM81.49 9.6L78.84 9.6 78.84-19.45 78.39-23.8 80.89-24.1 81.34-21.4Q84.99-24.05 88.29-24.05L88.29-24.05Q92.74-24.05 95.19-20.8 97.64-17.55 97.64-11.85 97.64-6.15 94.94-2.85 92.24 0.45 87.44 0.45L87.44 0.45Q84.64 0.45 81.49-0.9L81.49-0.9 81.49 9.6ZM94.79-11.78Q94.79-16.2 93.09-18.82 91.39-21.45 88.22-21.45 85.04-21.45 81.49-18.6L81.49-18.6 81.49-3.6Q82.54-3.1 84.37-2.63 86.19-2.15 87.34-2.15L87.34-2.15Q90.89-2.15 92.84-4.75 94.79-7.35 94.79-11.78ZM121.24 0L118.69 0 118.59-2.05Q113.79 0.45 110.59 0.45 107.39 0.45 105.54-1.75 103.69-3.95 103.69-7.75L103.69-7.75 103.69-23.75 106.34-23.75 106.34-7.75Q106.34-5.3 107.52-3.73 108.69-2.15 111.09-2.15 113.49-2.15 118.59-4.65L118.59-4.65 118.59-23.75 121.24-23.75 121.24 0ZM128.89-1.15L128.89-1.15 129.54-3.75Q134.49-2.1 137.19-2.1 139.89-2.1 141.36-3.28 142.84-4.45 142.84-6.4 142.84-8.35 141.66-9.28 140.49-10.2 136.79-11.05 133.09-11.9 131.24-13.5L131.24-13.5Q129.39-15 129.39-18 129.39-21 131.66-22.58 133.94-24.15 137.54-24.15 141.14-24.15 145.34-22.55L145.34-22.55 144.64-20.2Q140.39-21.6 137.79-21.6 135.19-21.6 133.69-20.7L133.69-20.7Q132.19-19.7 132.19-18 132.19-16.3 133.51-15.35 134.84-14.4 138.64-13.45 142.44-12.5 144.04-11.03 145.64-9.55 145.64-6.4 145.64-3.25 143.49-1.4L143.49-1.4Q141.39 0.45 137.49 0.45 133.59 0.45 128.89-1.15ZM183.98-2.5L183.98-21.25 179.23-21.25 179.23-23.75 183.98-23.75Q183.98-33.65 191.33-33.65L191.33-33.65Q193.73-33.65 196.63-32.8L196.63-32.8 196.03-30.25Q193.23-31.05 191.43-31.05L191.43-31.05Q188.83-31.05 187.73-29.3 186.63-27.55 186.63-23.75L186.63-23.75 195.68-23.75 195.68-21.25 186.63-21.25 186.63-2.5 195.78-2.5 195.78 0 179.03 0 179.03-2.5 183.98-2.5ZM221.23 0L218.68 0 218.58-2.05Q213.78 0.45 210.58 0.45 207.38 0.45 205.53-1.75 203.68-3.95 203.68-7.75L203.68-7.75 203.68-23.75 206.33-23.75 206.33-7.75Q206.33-5.3 207.51-3.73 208.68-2.15 211.08-2.15 213.48-2.15 218.58-4.65L218.58-4.65 218.58-23.75 221.23-23.75 221.23 0ZM246.38-23.75L246.38-5.75 246.53 1.15Q246.53 5.6 243.85 7.8 241.18 10 237.23 10 233.28 10 228.23 8L228.23 8 229.13 5.5Q234.08 7.4 237 7.4 239.93 7.4 241.9 5.88 243.88 4.35 243.88 1.2L243.88 1.2Q243.88 0.8 243.8-0.58 243.73-1.95 243.73-2.6L243.73-2.6Q240.08-0.05 236.93-0.05L236.93-0.05Q232.43-0.05 230-3.13 227.58-6.2 227.58-11.88 227.58-17.55 230.28-20.8 232.98-24.05 237.78-24.05L237.78-24.05Q240.43-24.05 243.73-22.3L243.73-22.3 243.83-23.75 246.38-23.75ZM230.43-11.93Q230.43-7.55 232.13-5.1 233.83-2.65 237.08-2.65 240.33-2.65 243.73-5.5L243.73-5.5 243.73-19.5Q240.63-21.45 237.88-21.45L237.88-21.45Q234.33-21.45 232.38-18.88 230.43-16.3 230.43-11.93ZM261.93-21.25L256.13-21.25 256.13-23.75 264.58-23.75 264.58-2.5 270.38-2.5 270.38 0 255.73 0 255.73-2.5 261.93-2.5 261.93-21.25ZM263.03-28.55Q262.13-28.55 261.5-29.18 260.88-29.8 260.88-30.78 260.88-31.75 261.5-32.33 262.13-32.9 263.03-32.9 263.93-32.9 264.5-32.35 265.08-31.8 265.08-30.8 265.08-29.8 264.5-29.18 263.93-28.55 263.03-28.55ZM282.97-9.1L282.97-20.9 278.77-20.9 278.77-23.4 282.97-23.4 282.97-29.15 285.62-29.65 285.62-23.4 295.12-23.4 295.12-20.9 285.62-20.9 285.62-9.2Q285.62-5.3 286.4-3.7 287.17-2.1 289.57-2.1 291.97-2.1 294.87-3.05L294.87-3.05 295.47-0.55Q292.57 0.5 290.07 0.5 287.57 0.5 286.15-0.15 284.72-0.8 284.05-2.23 283.37-3.65 283.17-5.15 282.97-6.65 282.97-9.1L282.97-9.1Z" opacity="1" transform="matrix(1,0,0,1,0,0)" fill="#0023ff" class="slogan-text-1" data-fill-palette-color="secondary" id="text-1"></path></svg></g></svg></g></svg></g></svg></g><g transform="matrix(1,0,0,1,83.9605624166403,0)"><svg viewBox="0 0 227.59887516671938 227.59887516671938" height="227.59887516671938" width="227.59887516671938"><g><svg></svg></g><g id="icon-0"><svg viewBox="0 0 227.59887516671938 227.59887516671938" height="227.59887516671938" width="227.59887516671938"><g><path d="M0 113.799c0-62.85 50.95-113.799 113.799-113.799 62.85 0 113.799 50.95 113.8 113.799 0 62.85-50.95 113.799-113.8 113.8-62.85 0-113.799-50.95-113.799-113.8zM113.799 221.921c59.714 0 108.121-48.408 108.122-108.122 0-59.714-48.408-108.121-108.122-108.121-59.714 0-108.121 48.408-108.121 108.121 0 59.714 48.408 108.121 108.121 108.122z" data-fill-palette-color="tertiary" fill="#0080ff" stroke="transparent"></path></g><g transform="matrix(1,0,0,1,47.698508074507316,48.09405884949379)"><svg viewBox="0 0 132.20185901770475 131.4107574677318" height="131.4107574677318" width="132.20185901770475"><g><svg xmlns="http://www.w3.org/2000/svg" xmlns:xlink="http://www.w3.org/1999/xlink" version="1.1" x="0" y="0" viewBox="2.5 2.640625 47 46.71875" style="enable-background:new 0 0 52 52;" xml:space="preserve" height="131.4107574677318" width="132.20185901770475" class="icon-s-0" data-fill-palette-color="accent" id="s-0"><g fill="#0023ff" data-fill-palette-color="accent"><g fill="#0023ff" data-fill-palette-color="accent"><path d="M47 16.641H5c-1.378 0-2.5-1.121-2.5-2.5v-9c0-1.379 1.122-2.5 2.5-2.5h42c1.378 0 2.5 1.121 2.5 2.5v9C49.5 15.52 48.378 16.641 47 16.641zM5 3.641c-0.827 0-1.5 0.673-1.5 1.5v9c0 0.827 0.673 1.5 1.5 1.5h42c0.827 0 1.5-0.673 1.5-1.5v-9c0-0.827-0.673-1.5-1.5-1.5H5z" fill="#0023ff" data-fill-palette-color="accent"></path></g><g fill="#0023ff" data-fill-palette-color="accent"><path d="M10 10.141H8c-0.276 0-0.5-0.224-0.5-0.5s0.224-0.5 0.5-0.5h2c0.276 0 0.5 0.224 0.5 0.5S10.276 10.141 10 10.141z" fill="#0023ff" data-fill-palette-color="accent"></path></g><g fill="#0023ff" data-fill-palette-color="accent"><path d="M17 10.141h-2c-0.276 0-0.5-0.224-0.5-0.5s0.224-0.5 0.5-0.5h2c0.276 0 0.5 0.224 0.5 0.5S17.276 10.141 17 10.141z" fill="#0023ff" data-fill-palette-color="accent"></path></g><g fill="#0023ff" data-fill-palette-color="accent"><path d="M41.5 12.641c-1.654 0-3-1.346-3-3s1.346-3 3-3 3 1.346 3 3S43.154 12.641 41.5 12.641zM41.5 7.641c-1.103 0-2 0.897-2 2s0.897 2 2 2 2-0.897 2-2S42.603 7.641 41.5 7.641z" fill="#0023ff" data-fill-palette-color="accent"></path></g><g fill="#0023ff" data-fill-palette-color="accent"><path d="M47 35.641H5c-1.378 0-2.5-1.121-2.5-2.5v-9c0-1.379 1.122-2.5 2.5-2.5h42c1.378 0 2.5 1.121 2.5 2.5v9C49.5 34.52 48.378 35.641 47 35.641zM5 22.641c-0.827 0-1.5 0.673-1.5 1.5v9c0 0.827 0.673 1.5 1.5 1.5h42c0.827 0 1.5-0.673 1.5-1.5v-9c0-0.827-0.673-1.5-1.5-1.5H5z" fill="#0023ff" data-fill-palette-color="accent"></path></g><g fill="#0023ff" data-fill-palette-color="accent"><path d="M10 29.141H8c-0.276 0-0.5-0.224-0.5-0.5s0.224-0.5 0.5-0.5h2c0.276 0 0.5 0.224 0.5 0.5S10.276 29.141 10 29.141z" fill="#0023ff" data-fill-palette-color="accent"></path></g><g fill="#0023ff" data-fill-palette-color="accent"><path d="M17 29.141h-2c-0.276 0-0.5-0.224-0.5-0.5s0.224-0.5 0.5-0.5h2c0.276 0 0.5 0.224 0.5 0.5S17.276 29.141 17 29.141z" fill="#0023ff" data-fill-palette-color="accent"></path></g><g fill="#0023ff" data-fill-palette-color="accent"><path d="M41.5 31.641c-1.654 0-3-1.346-3-3s1.346-3 3-3 3 1.346 3 3S43.154 31.641 41.5 31.641zM41.5 26.641c-1.103 0-2 0.897-2 2s0.897 2 2 2 2-0.897 2-2S42.603 26.641 41.5 26.641z" fill="#0023ff" data-fill-palette-color="accent"></path></g><g fill="#0023ff" data-fill-palette-color="accent"><path d="M41 22.641c-0.276 0-0.5-0.224-0.5-0.5v-6c0-0.276 0.224-0.5 0.5-0.5s0.5 0.224 0.5 0.5v6C41.5 22.417 41.276 22.641 41 22.641z" fill="#0023ff" data-fill-palette-color="accent"></path></g><g fill="#0023ff" data-fill-palette-color="accent"><path d="M11 22.641c-0.276 0-0.5-0.224-0.5-0.5v-6c0-0.276 0.224-0.5 0.5-0.5s0.5 0.224 0.5 0.5v6C11.5 22.417 11.276 22.641 11 22.641z" fill="#0023ff" data-fill-palette-color="accent"></path></g><g fill="#0023ff" data-fill-palette-color="accent"><path d="M26 43.358c-0.276 0-0.5-0.224-0.5-0.5V35.141c0-0.276 0.224-0.5 0.5-0.5s0.5 0.224 0.5 0.5v7.717C26.5 43.135 26.276 43.358 26 43.358z" fill="#0023ff" data-fill-palette-color="accent"></path></g><g fill="#0023ff" data-fill-palette-color="accent"><path d="M29.004 49.359h-6c-0.276 0-0.5-0.224-0.5-0.5v-6c0-0.276 0.224-0.5 0.5-0.5h6c0.276 0 0.5 0.224 0.5 0.5v6C29.504 49.136 29.281 49.359 29.004 49.359zM23.504 48.359h5v-5h-5V48.359z" fill="#0023ff" data-fill-palette-color="accent"></path></g><g fill="#0023ff" data-fill-palette-color="accent"><path d="M43.115 46.359H29.004c-0.276 0-0.5-0.224-0.5-0.5s0.224-0.5 0.5-0.5h14.111c0.276 0 0.5 0.224 0.5 0.5S43.391 46.359 43.115 46.359z" fill="#0023ff" data-fill-palette-color="accent"></path></g><g fill="#0023ff" data-fill-palette-color="accent"><path d="M23.004 46.359H8.885c-0.276 0-0.5-0.224-0.5-0.5s0.224-0.5 0.5-0.5h14.119c0.276 0 0.5 0.224 0.5 0.5S23.281 46.359 23.004 46.359z" fill="#0023ff" data-fill-palette-color="accent"></path></g></g></svg></g></svg></g></svg></g></svg></g><g></g></svg></g><defs></defs></svg><rect width="264.84257072580664" height="247.2" fill="none" stroke="none" visibility="hidden"></rect></g></svg></g></svg>