<?xml version="1.0" encoding="UTF-8" standalone="no"?>
<!-- Created with Inkscape (http://www.inkscape.org/) -->

<svg
   version="1.1"
   id="svg2"
   width="768"
   height="288"
   viewBox="0 0 768 288"
   xmlns="http://www.w3.org/2000/svg"
   xmlns:svg="http://www.w3.org/2000/svg">
  <defs
     id="defs6">
    <clipPath
       clipPathUnits="userSpaceOnUse"
       id="clipPath26">
      <path
         d="M 38.48,41.41 H 570.52 V 210.52 H 38.48 Z"
         id="path24" />
    </clipPath>
    <clipPath
       clipPathUnits="userSpaceOnUse"
       id="clipPath128">
      <path
         d="M 38.48,41.41 H 570.52 V 210.52 H 38.48 Z"
         id="path126" />
    </clipPath>
    <clipPath
       clipPathUnits="userSpaceOnUse"
       id="clipPath140">
      <path
         d="M 38.48,41.41 H 570.52 V 210.52 H 38.48 Z"
         id="path138" />
    </clipPath>
    <clipPath
       clipPathUnits="userSpaceOnUse"
       id="clipPath150">
      <path
         d="M 38.48,41.41 H 570.52 V 210.52 H 38.48 Z"
         id="path148" />
    </clipPath>
    <clipPath
       clipPathUnits="userSpaceOnUse"
       id="clipPath162">
      <path
         d="M 38.48,41.41 H 570.52 V 210.52 H 38.48 Z"
         id="path160" />
    </clipPath>
    <clipPath
       clipPathUnits="userSpaceOnUse"
       id="clipPath172">
      <path
         d="M 38.48,41.41 H 570.52 V 210.52 H 38.48 Z"
         id="path170" />
    </clipPath>
    <clipPath
       clipPathUnits="userSpaceOnUse"
       id="clipPath184">
      <path
         d="M 38.48,41.41 H 570.52 V 210.52 H 38.48 Z"
         id="path182" />
    </clipPath>
    <clipPath
       clipPathUnits="userSpaceOnUse"
       id="clipPath194">
      <path
         d="M 38.48,41.41 H 570.52 V 210.52 H 38.48 Z"
         id="path192" />
    </clipPath>
    <clipPath
       clipPathUnits="userSpaceOnUse"
       id="clipPath206">
      <path
         d="M 38.48,41.41 H 570.52 V 210.52 H 38.48 Z"
         id="path204" />
    </clipPath>
    <clipPath
       clipPathUnits="userSpaceOnUse"
       id="clipPath216">
      <path
         d="M 38.48,41.41 H 570.52 V 210.52 H 38.48 Z"
         id="path214" />
    </clipPath>
    <clipPath
       clipPathUnits="userSpaceOnUse"
       id="clipPath228">
      <path
         d="M 38.48,41.41 H 570.52 V 210.52 H 38.48 Z"
         id="path226" />
    </clipPath>
    <clipPath
       clipPathUnits="userSpaceOnUse"
       id="clipPath238">
      <path
         d="M 38.48,41.41 H 570.52 V 210.52 H 38.48 Z"
         id="path236" />
    </clipPath>
    <clipPath
       clipPathUnits="userSpaceOnUse"
       id="clipPath250">
      <path
         d="M 38.48,41.41 H 570.52 V 210.52 H 38.48 Z"
         id="path248" />
    </clipPath>
    <clipPath
       clipPathUnits="userSpaceOnUse"
       id="clipPath260">
      <path
         d="M 38.48,41.41 H 570.52 V 210.52 H 38.48 Z"
         id="path258" />
    </clipPath>
    <clipPath
       clipPathUnits="userSpaceOnUse"
       id="clipPath272">
      <path
         d="M 38.48,41.41 H 570.52 V 210.52 H 38.48 Z"
         id="path270" />
    </clipPath>
  </defs>
  <g
     id="g8"
     transform="matrix(1.3333333,0,0,-1.3333333,0,288)">
    <g
       id="g10" />
    <g
       id="g12" />
    <g
       id="g14" />
    <g
       id="g16" />
    <g
       id="g18" />
    <g
       id="g20">
      <g
         id="g22"
         clip-path="url(#clipPath26)">
        <path
           d="M 38.48,64 H 570.52"
           style="fill:none;stroke:#ebebeb;stroke-width:0.53;stroke-linecap:butt;stroke-linejoin:round;stroke-miterlimit:10;stroke-dasharray:none;stroke-opacity:1"
           id="path28" />
        <path
           d="M 38.48,93.8 H 570.52"
           style="fill:none;stroke:#ebebeb;stroke-width:0.53;stroke-linecap:butt;stroke-linejoin:round;stroke-miterlimit:10;stroke-dasharray:none;stroke-opacity:1"
           id="path30" />
        <path
           d="M 38.48,123.6 H 570.52"
           style="fill:none;stroke:#ebebeb;stroke-width:0.53;stroke-linecap:butt;stroke-linejoin:round;stroke-miterlimit:10;stroke-dasharray:none;stroke-opacity:1"
           id="path32" />
        <path
           d="M 38.48,153.4 H 570.52"
           style="fill:none;stroke:#ebebeb;stroke-width:0.53;stroke-linecap:butt;stroke-linejoin:round;stroke-miterlimit:10;stroke-dasharray:none;stroke-opacity:1"
           id="path34" />
        <path
           d="M 38.48,183.2 H 570.52"
           style="fill:none;stroke:#ebebeb;stroke-width:0.53;stroke-linecap:butt;stroke-linejoin:round;stroke-miterlimit:10;stroke-dasharray:none;stroke-opacity:1"
           id="path36" />
        <path
           d="M 38.48,49.1 H 570.52"
           style="fill:none;stroke:#ebebeb;stroke-width:1.07;stroke-linecap:butt;stroke-linejoin:round;stroke-miterlimit:10;stroke-dasharray:none;stroke-opacity:1"
           id="path38" />
        <path
           d="M 38.48,78.9 H 570.52"
           style="fill:none;stroke:#ebebeb;stroke-width:1.07;stroke-linecap:butt;stroke-linejoin:round;stroke-miterlimit:10;stroke-dasharray:none;stroke-opacity:1"
           id="path40" />
        <path
           d="M 38.48,108.7 H 570.52"
           style="fill:none;stroke:#ebebeb;stroke-width:1.07;stroke-linecap:butt;stroke-linejoin:round;stroke-miterlimit:10;stroke-dasharray:none;stroke-opacity:1"
           id="path42" />
        <path
           d="M 38.48,138.5 H 570.52"
           style="fill:none;stroke:#ebebeb;stroke-width:1.07;stroke-linecap:butt;stroke-linejoin:round;stroke-miterlimit:10;stroke-dasharray:none;stroke-opacity:1"
           id="path44" />
        <path
           d="M 38.48,168.3 H 570.52"
           style="fill:none;stroke:#ebebeb;stroke-width:1.07;stroke-linecap:butt;stroke-linejoin:round;stroke-miterlimit:10;stroke-dasharray:none;stroke-opacity:1"
           id="path46" />
        <path
           d="M 38.48,198.1 H 570.52"
           style="fill:none;stroke:#ebebeb;stroke-width:1.07;stroke-linecap:butt;stroke-linejoin:round;stroke-miterlimit:10;stroke-dasharray:none;stroke-opacity:1"
           id="path48" />
        <path
           d="M 82.82,41.41 V 210.52"
           style="fill:none;stroke:#ebebeb;stroke-width:1.07;stroke-linecap:butt;stroke-linejoin:round;stroke-miterlimit:10;stroke-dasharray:none;stroke-opacity:1"
           id="path50" />
        <path
           d="M 156.71,41.41 V 210.52"
           style="fill:none;stroke:#ebebeb;stroke-width:1.07;stroke-linecap:butt;stroke-linejoin:round;stroke-miterlimit:10;stroke-dasharray:none;stroke-opacity:1"
           id="path52" />
        <path
           d="M 230.61,41.41 V 210.52"
           style="fill:none;stroke:#ebebeb;stroke-width:1.07;stroke-linecap:butt;stroke-linejoin:round;stroke-miterlimit:10;stroke-dasharray:none;stroke-opacity:1"
           id="path54" />
        <path
           d="M 304.5,41.41 V 210.52"
           style="fill:none;stroke:#ebebeb;stroke-width:1.07;stroke-linecap:butt;stroke-linejoin:round;stroke-miterlimit:10;stroke-dasharray:none;stroke-opacity:1"
           id="path56" />
        <path
           d="M 378.4,41.41 V 210.52"
           style="fill:none;stroke:#ebebeb;stroke-width:1.07;stroke-linecap:butt;stroke-linejoin:round;stroke-miterlimit:10;stroke-dasharray:none;stroke-opacity:1"
           id="path58" />
        <path
           d="M 452.29,41.41 V 210.52"
           style="fill:none;stroke:#ebebeb;stroke-width:1.07;stroke-linecap:butt;stroke-linejoin:round;stroke-miterlimit:10;stroke-dasharray:none;stroke-opacity:1"
           id="path60" />
        <path
           d="M 526.18,41.41 V 210.52"
           style="fill:none;stroke:#ebebeb;stroke-width:1.07;stroke-linecap:butt;stroke-linejoin:round;stroke-miterlimit:10;stroke-dasharray:none;stroke-opacity:1"
           id="path62" />
        <path
           d="m 55.11,49.1 h 55.42 v 80.23 H 55.11 Z"
           style="fill:#dae8fc;fill-opacity:1;fill-rule:nonzero;stroke:none"
           id="path64" />
        <path
           d="m 129,49.1 h 55.42 v 91.28 H 129 Z"
           style="fill:#d5e8d4;fill-opacity:1;fill-rule:nonzero;stroke:none"
           id="path66" />
        <path
           d="m 202.9,49.1 h 55.42 V 77.26 H 202.9 Z"
           style="fill:#6d8764;fill-opacity:1;fill-rule:nonzero;stroke:none"
           id="path68" />
        <path
           d="m 276.79,49.1 h 55.42 v 111.02 h -55.42 z"
           style="fill:#cd0bbc;fill-opacity:1;fill-rule:nonzero;stroke:none"
           id="path70" />
        <path
           d="M 350.68,49.1 H 406.1 V 87.22 H 350.68 Z"
           style="fill:#cd0bbc;fill-opacity:1;fill-rule:nonzero;stroke:none"
           id="path72" />
        <path
           d="M 424.58,49.1 H 480 v 27.93 h -55.42 z"
           style="fill:#cd0bbc;fill-opacity:1;fill-rule:nonzero;stroke:none"
           id="path74" />
        <path
           d="m 498.47,49.1 h 55.42 v 2.75 h -55.42 z"
           style="fill:#cd0bbc;fill-opacity:1;fill-rule:nonzero;stroke:none"
           id="path76" />
        <path
           d="M 71.73,130.88 H 93.9"
           style="fill:none;stroke:#0000ff;stroke-width:1.07;stroke-linecap:butt;stroke-linejoin:round;stroke-miterlimit:10;stroke-dasharray:none;stroke-opacity:1"
           id="path78" />
        <path
           d="m 82.82,130.88 v -3.11"
           style="fill:none;stroke:#0000ff;stroke-width:1.07;stroke-linecap:butt;stroke-linejoin:round;stroke-miterlimit:10;stroke-dasharray:none;stroke-opacity:1"
           id="path80" />
        <path
           d="M 71.73,127.77 H 93.9"
           style="fill:none;stroke:#0000ff;stroke-width:1.07;stroke-linecap:butt;stroke-linejoin:round;stroke-miterlimit:10;stroke-dasharray:none;stroke-opacity:1"
           id="path82" />
        <path
           d="M 145.63,160.95 H 167.8"
           style="fill:none;stroke:#0000ff;stroke-width:1.07;stroke-linecap:butt;stroke-linejoin:round;stroke-miterlimit:10;stroke-dasharray:none;stroke-opacity:1"
           id="path84" />
        <path
           d="M 156.71,160.95 V 119.82"
           style="fill:none;stroke:#0000ff;stroke-width:1.07;stroke-linecap:butt;stroke-linejoin:round;stroke-miterlimit:10;stroke-dasharray:none;stroke-opacity:1"
           id="path86" />
        <path
           d="M 145.63,119.82 H 167.8"
           style="fill:none;stroke:#0000ff;stroke-width:1.07;stroke-linecap:butt;stroke-linejoin:round;stroke-miterlimit:10;stroke-dasharray:none;stroke-opacity:1"
           id="path88" />
        <path
           d="m 219.52,83.14 h 22.17"
           style="fill:none;stroke:#0000ff;stroke-width:1.07;stroke-linecap:butt;stroke-linejoin:round;stroke-miterlimit:10;stroke-dasharray:none;stroke-opacity:1"
           id="path90" />
        <path
           d="M 230.61,83.14 V 71.39"
           style="fill:none;stroke:#0000ff;stroke-width:1.07;stroke-linecap:butt;stroke-linejoin:round;stroke-miterlimit:10;stroke-dasharray:none;stroke-opacity:1"
           id="path92" />
        <path
           d="m 219.52,71.39 h 22.17"
           style="fill:none;stroke:#0000ff;stroke-width:1.07;stroke-linecap:butt;stroke-linejoin:round;stroke-miterlimit:10;stroke-dasharray:none;stroke-opacity:1"
           id="path94" />
        <path
           d="m 293.42,167.36 h 22.16"
           style="fill:none;stroke:#0000ff;stroke-width:1.07;stroke-linecap:butt;stroke-linejoin:round;stroke-miterlimit:10;stroke-dasharray:none;stroke-opacity:1"
           id="path96" />
        <path
           d="M 304.5,167.36 V 152.89"
           style="fill:none;stroke:#0000ff;stroke-width:1.07;stroke-linecap:butt;stroke-linejoin:round;stroke-miterlimit:10;stroke-dasharray:none;stroke-opacity:1"
           id="path98" />
        <path
           d="m 293.42,152.89 h 22.16"
           style="fill:none;stroke:#0000ff;stroke-width:1.07;stroke-linecap:butt;stroke-linejoin:round;stroke-miterlimit:10;stroke-dasharray:none;stroke-opacity:1"
           id="path100" />
        <path
           d="m 367.31,92.85 h 22.17"
           style="fill:none;stroke:#0000ff;stroke-width:1.07;stroke-linecap:butt;stroke-linejoin:round;stroke-miterlimit:10;stroke-dasharray:none;stroke-opacity:1"
           id="path102" />
        <path
           d="M 378.4,92.85 V 81.59"
           style="fill:none;stroke:#0000ff;stroke-width:1.07;stroke-linecap:butt;stroke-linejoin:round;stroke-miterlimit:10;stroke-dasharray:none;stroke-opacity:1"
           id="path104" />
        <path
           d="m 367.31,81.59 h 22.17"
           style="fill:none;stroke:#0000ff;stroke-width:1.07;stroke-linecap:butt;stroke-linejoin:round;stroke-miterlimit:10;stroke-dasharray:none;stroke-opacity:1"
           id="path106" />
        <path
           d="m 441.21,81.87 h 22.16"
           style="fill:none;stroke:#0000ff;stroke-width:1.07;stroke-linecap:butt;stroke-linejoin:round;stroke-miterlimit:10;stroke-dasharray:none;stroke-opacity:1"
           id="path108" />
        <path
           d="M 452.29,81.87 V 72.18"
           style="fill:none;stroke:#0000ff;stroke-width:1.07;stroke-linecap:butt;stroke-linejoin:round;stroke-miterlimit:10;stroke-dasharray:none;stroke-opacity:1"
           id="path110" />
        <path
           d="m 441.21,72.18 h 22.16"
           style="fill:none;stroke:#0000ff;stroke-width:1.07;stroke-linecap:butt;stroke-linejoin:round;stroke-miterlimit:10;stroke-dasharray:none;stroke-opacity:1"
           id="path112" />
        <path
           d="m 515.1,52 h 22.17"
           style="fill:none;stroke:#0000ff;stroke-width:1.07;stroke-linecap:butt;stroke-linejoin:round;stroke-miterlimit:10;stroke-dasharray:none;stroke-opacity:1"
           id="path114" />
        <path
           d="M 526.18,52 V 51.71"
           style="fill:none;stroke:#0000ff;stroke-width:1.07;stroke-linecap:butt;stroke-linejoin:round;stroke-miterlimit:10;stroke-dasharray:none;stroke-opacity:1"
           id="path116" />
        <path
           d="m 515.1,51.71 h 22.17"
           style="fill:none;stroke:#0000ff;stroke-width:1.07;stroke-linecap:butt;stroke-linejoin:round;stroke-miterlimit:10;stroke-dasharray:none;stroke-opacity:1"
           id="path118" />
        <path
           d="m 64.67,151.11 h 36.29 -0.08 l 0.32,0.02 0.31,0.06 0.3,0.11 0.28,0.16 0.25,0.2 0.21,0.24 0.17,0.27 0.13,0.3 0.07,0.31 0.03,0.32 v 0 10.55 0 l -0.03,0.31 -0.07,0.31 -0.13,0.3 -0.17,0.27 -0.21,0.24 -0.25,0.2 -0.28,0.16 -0.3,0.11 -0.31,0.07 -0.24,0.01 H 64.67 l 0.24,-0.01 -0.32,0.01 -0.31,-0.04 -0.31,-0.09 -0.29,-0.13 -0.26,-0.19 -0.23,-0.22 -0.2,-0.25 -0.14,-0.29 -0.11,-0.3 -0.05,-0.31 v -0.16 -10.55 0.16 -0.32 l 0.05,-0.32 0.11,-0.3 0.14,-0.28 0.2,-0.26 0.23,-0.22 0.26,-0.18 0.29,-0.14 0.31,-0.09 0.31,-0.04 z"
           style="fill:#ffffff;fill-opacity:1;fill-rule:nonzero;stroke:#000000;stroke-width:0.53;stroke-linecap:round;stroke-linejoin:round;stroke-miterlimit:10;stroke-dasharray:none;stroke-opacity:1"
           id="path120" />
      </g>
    </g>
    <g
       id="g122">
      <g
         id="g124"
         clip-path="url(#clipPath128)">
        <text
           xml:space="preserve"
           transform="matrix(1,0,0,-1,66,154.42)"
           style="font-variant:normal;font-weight:normal;font-size:11px;font-family:Helvetica;-inkscape-font-specification:Helvetica;writing-mode:lr-tb;fill:#000000;fill-opacity:1;fill-rule:nonzero;stroke:none"
           id="text132"><tspan
             x="0 6.1160002 12.232 18.348 21.406 27.521999"
             y="0"
             id="tspan130">269.22</tspan></text>
      </g>
    </g>
    <g
       id="g134">
      <g
         id="g136"
         clip-path="url(#clipPath140)">
        <path
           d="m 138.57,162.17 h 36.29 -0.08 l 0.32,0.01 0.31,0.07 0.3,0.11 0.27,0.16 0.25,0.2 0.21,0.24 0.18,0.27 0.12,0.3 0.08,0.31 0.02,0.31 v 0 10.55 0 l -0.02,0.32 -0.08,0.31 -0.12,0.3 -0.18,0.27 -0.21,0.24 -0.25,0.2 -0.27,0.16 -0.3,0.11 -0.31,0.06 -0.24,0.02 h -36.29 l 0.24,-0.02 -0.32,0.02 -0.32,-0.04 -0.31,-0.09 -0.29,-0.14 -0.26,-0.18 -0.23,-0.22 -0.19,-0.26 -0.15,-0.28 -0.1,-0.3 -0.05,-0.32 -0.01,-0.16 v -10.55 l 0.01,0.16 v -0.32 l 0.05,-0.31 0.1,-0.3 0.15,-0.29 0.19,-0.25 0.23,-0.22 0.26,-0.19 0.29,-0.13 0.31,-0.09 0.32,-0.04 z"
           style="fill:#ffffff;fill-opacity:1;fill-rule:nonzero;stroke:#000000;stroke-width:0.53;stroke-linecap:round;stroke-linejoin:round;stroke-miterlimit:10;stroke-dasharray:none;stroke-opacity:1"
           id="path142" />
      </g>
    </g>
    <g
       id="g144">
      <g
         id="g146"
         clip-path="url(#clipPath150)">
        <text
           xml:space="preserve"
           transform="matrix(1,0,0,-1,139.89,165.48)"
           style="font-variant:normal;font-weight:normal;font-size:11px;font-family:Helvetica;-inkscape-font-specification:Helvetica;writing-mode:lr-tb;fill:#000000;fill-opacity:1;fill-rule:nonzero;stroke:none"
           id="text154"><tspan
             x="0 6.1160002 12.232 18.348 21.406 27.521999"
             y="0"
             id="tspan152">306.32</tspan></text>
      </g>
    </g>
    <g
       id="g156">
      <g
         id="g158"
         clip-path="url(#clipPath162)">
        <path
           d="m 213.99,99.05 h 33.23 -0.08 l 0.32,0.01 0.31,0.07 0.3,0.11 0.28,0.16 0.25,0.2 0.21,0.24 0.17,0.27 0.13,0.29 0.07,0.32 0.03,0.31 v 0 10.55 0 l -0.03,0.32 -0.07,0.31 -0.13,0.29 -0.17,0.28 -0.21,0.23 -0.25,0.21 -0.28,0.16 -0.3,0.11 -0.31,0.06 -0.24,0.02 h -33.23 l 0.24,-0.02 -0.32,0.02 -0.32,-0.04 -0.3,-0.09 -0.29,-0.14 -0.27,-0.18 -0.23,-0.22 -0.19,-0.26 -0.15,-0.28 -0.1,-0.3 -0.05,-0.32 -0.01,-0.16 v -10.55 l 0.01,0.16 v -0.32 l 0.05,-0.31 0.1,-0.3 0.15,-0.29 0.19,-0.25 0.23,-0.23 0.27,-0.18 0.29,-0.13 0.3,-0.09 0.32,-0.04 z"
           style="fill:#ffffff;fill-opacity:1;fill-rule:nonzero;stroke:#000000;stroke-width:0.53;stroke-linecap:round;stroke-linejoin:round;stroke-miterlimit:10;stroke-dasharray:none;stroke-opacity:1"
           id="path164" />
      </g>
    </g>
    <g
       id="g166">
      <g
         id="g168"
         clip-path="url(#clipPath172)">
        <text
           xml:space="preserve"
           transform="matrix(1,0,0,-1,218.378,102.36)"
           style="font-variant:normal;font-weight:normal;font-size:11px;font-family:Helvetica;-inkscape-font-specification:Helvetica;writing-mode:lr-tb;fill:#000000;fill-opacity:1;fill-rule:nonzero;stroke:none"
           id="text176"><tspan
             x="0 6.1160002 12.232 15.29 21.406"
             y="0"
             id="tspan174">94.51</tspan></text>
      </g>
    </g>
    <g
       id="g178">
      <g
         id="g180"
         clip-path="url(#clipPath184)">
        <path
           d="m 286.36,181.91 h 36.28 -0.08 l 0.32,0.01 0.32,0.07 0.3,0.11 0.27,0.16 0.25,0.2 0.21,0.24 0.17,0.27 0.13,0.3 0.08,0.31 0.02,0.31 v 0 10.55 0 l -0.02,0.32 -0.08,0.31 -0.13,0.3 -0.17,0.27 -0.21,0.24 -0.25,0.2 -0.27,0.16 -0.3,0.11 -0.32,0.07 -0.24,0.01 h -36.28 l 0.24,-0.01 -0.32,0.01 -0.32,-0.04 -0.31,-0.09 -0.29,-0.14 -0.26,-0.18 -0.23,-0.22 -0.19,-0.26 -0.15,-0.28 -0.1,-0.3 -0.05,-0.32 -0.01,-0.16 v -10.55 l 0.01,0.16 v -0.32 l 0.05,-0.31 0.1,-0.3 0.15,-0.29 0.19,-0.25 0.23,-0.22 0.26,-0.19 0.29,-0.13 0.31,-0.09 0.32,-0.04 z"
           style="fill:#ffffff;fill-opacity:1;fill-rule:nonzero;stroke:#000000;stroke-width:0.53;stroke-linecap:round;stroke-linejoin:round;stroke-miterlimit:10;stroke-dasharray:none;stroke-opacity:1"
           id="path186" />
      </g>
    </g>
    <g
       id="g188">
      <g
         id="g190"
         clip-path="url(#clipPath194)">
        <text
           xml:space="preserve"
           transform="matrix(1,0,0,-1,287.68,185.22)"
           style="font-variant:normal;font-weight:normal;font-size:11px;font-family:Helvetica;-inkscape-font-specification:Helvetica;writing-mode:lr-tb;fill:#000000;fill-opacity:1;fill-rule:nonzero;stroke:none"
           id="text198"><tspan
             x="0 6.1160002 12.232 18.348 21.406 27.521999"
             y="0"
             id="tspan196">372.56</tspan></text>
      </g>
    </g>
    <g
       id="g200">
      <g
         id="g202"
         clip-path="url(#clipPath206)">
        <path
           d="m 360.25,109 h 36.29 -0.08 l 0.32,0.01 0.31,0.07 0.3,0.11 0.28,0.16 0.25,0.2 0.21,0.24 0.17,0.27 0.12,0.3 0.08,0.31 0.03,0.32 v 0 10.54 0 l -0.03,0.32 -0.08,0.31 -0.12,0.3 -0.17,0.27 -0.21,0.24 -0.25,0.2 -0.28,0.16 -0.3,0.11 -0.31,0.07 -0.24,0.01 h -36.29 l 0.24,-0.01 -0.32,0.01 -0.32,-0.04 -0.3,-0.09 -0.29,-0.13 -0.27,-0.19 -0.23,-0.22 -0.19,-0.25 -0.15,-0.29 -0.1,-0.3 -0.05,-0.32 -0.01,-0.16 v -10.54 l 0.01,0.16 v -0.32 l 0.05,-0.32 0.1,-0.3 0.15,-0.29 0.19,-0.25 0.23,-0.22 0.27,-0.18 0.29,-0.14 0.3,-0.09 0.32,-0.04 z"
           style="fill:#ffffff;fill-opacity:1;fill-rule:nonzero;stroke:#000000;stroke-width:0.53;stroke-linecap:round;stroke-linejoin:round;stroke-miterlimit:10;stroke-dasharray:none;stroke-opacity:1"
           id="path208" />
      </g>
    </g>
    <g
       id="g210">
      <g
         id="g212"
         clip-path="url(#clipPath216)">
        <text
           xml:space="preserve"
           transform="matrix(1,0,0,-1,361.58,112.31)"
           style="font-variant:normal;font-weight:normal;font-size:11px;font-family:Helvetica;-inkscape-font-specification:Helvetica;writing-mode:lr-tb;fill:#000000;fill-opacity:1;fill-rule:nonzero;stroke:none"
           id="text220"><tspan
             x="0 6.1160002 12.232 18.348 21.406 27.521999"
             y="0"
             id="tspan218">127.90</tspan></text>
      </g>
    </g>
    <g
       id="g222">
      <g
         id="g224"
         clip-path="url(#clipPath228)">
        <path
           d="m 435.67,98.81 h 33.23 -0.08 l 0.32,0.02 0.32,0.06 0.3,0.11 0.27,0.16 0.25,0.2 0.21,0.24 0.17,0.27 0.13,0.3 0.08,0.31 0.02,0.32 v 0 10.55 0 l -0.02,0.31 -0.08,0.31 -0.13,0.3 -0.17,0.27 -0.21,0.24 -0.25,0.2 -0.27,0.16 -0.3,0.11 -0.32,0.07 -0.24,0.01 h -33.23 l 0.24,-0.01 -0.32,0.01 -0.31,-0.04 -0.31,-0.09 -0.29,-0.13 -0.26,-0.19 -0.23,-0.22 -0.19,-0.25 -0.15,-0.29 -0.1,-0.3 -0.06,-0.31 v -0.16 -10.55 0.16 -0.32 l 0.06,-0.32 0.1,-0.3 0.15,-0.28 0.19,-0.26 0.23,-0.22 0.26,-0.18 0.29,-0.14 0.31,-0.09 0.31,-0.04 z"
           style="fill:#ffffff;fill-opacity:1;fill-rule:nonzero;stroke:#000000;stroke-width:0.53;stroke-linecap:round;stroke-linejoin:round;stroke-miterlimit:10;stroke-dasharray:none;stroke-opacity:1"
           id="path230" />
      </g>
    </g>
    <g
       id="g232">
      <g
         id="g234"
         clip-path="url(#clipPath238)">
        <text
           xml:space="preserve"
           transform="matrix(1,0,0,-1,440.058,102.12)"
           style="font-variant:normal;font-weight:normal;font-size:11px;font-family:Helvetica;-inkscape-font-specification:Helvetica;writing-mode:lr-tb;fill:#000000;fill-opacity:1;fill-rule:nonzero;stroke:none"
           id="text242"><tspan
             x="0 6.1160002 12.232 15.29 21.406"
             y="0"
             id="tspan240">93.71</tspan></text>
      </g>
    </g>
    <g
       id="g244">
      <g
         id="g246"
         clip-path="url(#clipPath250)">
        <path
           d="m 511.1,73.63 h 30.17 l -0.08,0.01 0.32,0.01 0.31,0.06 0.3,0.12 0.28,0.16 0.25,0.2 0.21,0.24 0.17,0.27 0.12,0.29 0.08,0.31 0.03,0.32 v 0 10.55 0 l -0.03,0.32 -0.08,0.31 -0.12,0.29 -0.17,0.27 -0.21,0.24 -0.25,0.2 -0.28,0.16 -0.3,0.12 -0.31,0.06 -0.24,0.02 H 511.1 l 0.24,-0.02 -0.32,0.01 -0.32,-0.03 -0.31,-0.09 -0.29,-0.14 -0.26,-0.18 -0.23,-0.22 -0.19,-0.26 -0.15,-0.28 -0.1,-0.31 -0.05,-0.31 -0.01,-0.16 V 75.62 l 0.01,0.16 v -0.32 l 0.05,-0.31 0.1,-0.31 0.15,-0.28 0.19,-0.26 0.23,-0.22 0.26,-0.18 0.29,-0.14 0.31,-0.09 0.32,-0.03 z"
           style="fill:#ffffff;fill-opacity:1;fill-rule:nonzero;stroke:#000000;stroke-width:0.53;stroke-linecap:round;stroke-linejoin:round;stroke-miterlimit:10;stroke-dasharray:none;stroke-opacity:1"
           id="path252" />
      </g>
    </g>
    <g
       id="g254">
      <g
         id="g256"
         clip-path="url(#clipPath260)">
        <text
           xml:space="preserve"
           transform="matrix(1,0,0,-1,518.536,76.95)"
           style="font-variant:normal;font-weight:normal;font-size:11px;font-family:Helvetica;-inkscape-font-specification:Helvetica;writing-mode:lr-tb;fill:#000000;fill-opacity:1;fill-rule:nonzero;stroke:none"
           id="text264"><tspan
             x="0 6.1160002 9.1739998 15.29"
             y="0"
             id="tspan262">9.23</tspan></text>
      </g>
    </g>
    <g
       id="g266">
      <g
         id="g268"
         clip-path="url(#clipPath272)" />
    </g>
    <g
       id="g274" />
    <g
       id="g276" />
    <g
       id="g278" />
    <g
       id="g280" />
    <g
       id="g282" />
    <g
       id="g284" />
    <g
       id="g286" />
    <g
       id="g288" />
    <g
       id="g290" />
    <g
       id="g292" />
    <g
       id="g294" />
    <g
       id="g296" />
    <g
       id="g298">
      <text
         xml:space="preserve"
         transform="matrix(1,0,0,-1,28.55,45.87)"
         style="font-variant:normal;font-weight:normal;font-size:9px;font-family:Helvetica;-inkscape-font-specification:Helvetica;writing-mode:lr-tb;fill:#4d4d4d;fill-opacity:1;fill-rule:nonzero;stroke:none"
         id="text302"><tspan
           x="0"
           y="0"
           id="tspan300">0</tspan></text>
      <text
         xml:space="preserve"
         transform="matrix(1,0,0,-1,18.54,75.67)"
         style="font-variant:normal;font-weight:normal;font-size:9px;font-family:Helvetica;-inkscape-font-specification:Helvetica;writing-mode:lr-tb;fill:#4d4d4d;fill-opacity:1;fill-rule:nonzero;stroke:none"
         id="text306"><tspan
           x="0 5.0040002 10.008"
           y="0"
           id="tspan304">100</tspan></text>
      <text
         xml:space="preserve"
         transform="matrix(1,0,0,-1,18.54,105.47)"
         style="font-variant:normal;font-weight:normal;font-size:9px;font-family:Helvetica;-inkscape-font-specification:Helvetica;writing-mode:lr-tb;fill:#4d4d4d;fill-opacity:1;fill-rule:nonzero;stroke:none"
         id="text310"><tspan
           x="0 5.0040002 10.008"
           y="0"
           id="tspan308">200</tspan></text>
      <text
         xml:space="preserve"
         transform="matrix(1,0,0,-1,18.54,135.27)"
         style="font-variant:normal;font-weight:normal;font-size:9px;font-family:Helvetica;-inkscape-font-specification:Helvetica;writing-mode:lr-tb;fill:#4d4d4d;fill-opacity:1;fill-rule:nonzero;stroke:none"
         id="text314"><tspan
           x="0 5.0040002 10.008"
           y="0"
           id="tspan312">300</tspan></text>
      <text
         xml:space="preserve"
         transform="matrix(1,0,0,-1,18.54,165.07)"
         style="font-variant:normal;font-weight:normal;font-size:9px;font-family:Helvetica;-inkscape-font-specification:Helvetica;writing-mode:lr-tb;fill:#4d4d4d;fill-opacity:1;fill-rule:nonzero;stroke:none"
         id="text318"><tspan
           x="0 5.0040002 10.008"
           y="0"
           id="tspan316">400</tspan></text>
      <text
         xml:space="preserve"
         transform="matrix(1,0,0,-1,18.54,194.87)"
         style="font-variant:normal;font-weight:normal;font-size:9px;font-family:Helvetica;-inkscape-font-specification:Helvetica;writing-mode:lr-tb;fill:#4d4d4d;fill-opacity:1;fill-rule:nonzero;stroke:none"
         id="text322"><tspan
           x="0 5.0040002 10.008"
           y="0"
           id="tspan320">500</tspan></text>
    </g>
    <g
       id="g324" />
    <g
       id="g326" />
    <g
       id="g328" />
    <g
       id="g330" />
    <g
       id="g332" />
    <g
       id="g334" />
    <g
       id="g336" />
    <g
       id="g338" />
    <g
       id="g340" />
    <g
       id="g342" />
    <g
       id="g344" />
    <g
       id="g346" />
    <g
       id="g348" />
    <g
       id="g350">
      <text
         xml:space="preserve"
         transform="matrix(1,0,0,-1,57.3,30.02)"
         style="font-variant:normal;font-weight:normal;font-size:9px;font-family:Helvetica;-inkscape-font-specification:Helvetica;writing-mode:lr-tb;fill:#4d4d4d;fill-opacity:1;fill-rule:nonzero;stroke:none"
         id="text354"><tspan
           x="0 4.5 6.4980001 11.502 16.506001 21.51 26.514 31.77 36.773998 38.771999 43.271999 45.773998"
           y="0"
           id="tspan352">cloud1−eis −</tspan></text>
      <text
         xml:space="preserve"
         transform="matrix(1,0,0,-1,65.82,20.52)"
         style="font-variant:normal;font-weight:normal;font-size:9px;font-family:Helvetica;-inkscape-font-specification:Helvetica;writing-mode:lr-tb;fill:#4d4d4d;fill-opacity:1;fill-rule:nonzero;stroke:none"
         id="text358"><tspan
           x="0 2.2320001 7.2360001 12.24 17.243999 22.5 27.504 29.502001"
           y="0"
           id="tspan356">fog1−eis</tspan></text>
      <text
         xml:space="preserve"
         transform="matrix(1,0,0,-1,135.83,30.02)"
         style="font-variant:normal;font-weight:normal;font-size:9px;font-family:Helvetica;-inkscape-font-specification:Helvetica;writing-mode:lr-tb;fill:#4d4d4d;fill-opacity:1;fill-rule:nonzero;stroke:none"
         id="text362"><tspan
           x="0 2.2320001 7.2360001 12.24 17.243999 22.5 27.504 29.502001 34.001999 36.504002"
           y="0"
           id="tspan360">fog2−eis −</tspan></text>
      <text
         xml:space="preserve"
         transform="matrix(1,0,0,-1,135.08,20.52)"
         style="font-variant:normal;font-weight:normal;font-size:9px;font-family:Helvetica;-inkscape-font-specification:Helvetica;writing-mode:lr-tb;fill:#4d4d4d;fill-opacity:1;fill-rule:nonzero;stroke:none"
         id="text366"><tspan
           x="0 4.5 6.4980001 11.502 16.506001 21.51 26.514 31.77 36.773998 38.771999"
           y="0"
           id="tspan364">cloud1−eis</tspan></text>
      <text
         xml:space="preserve"
         transform="matrix(1,0,0,-1,209.73,30.02)"
         style="font-variant:normal;font-weight:normal;font-size:9px;font-family:Helvetica;-inkscape-font-specification:Helvetica;writing-mode:lr-tb;fill:#4d4d4d;fill-opacity:1;fill-rule:nonzero;stroke:none"
         id="text370"><tspan
           x="0 2.2320001 7.2360001 12.24 17.243999 22.5 27.504 29.502001 34.001999 36.504002"
           y="0"
           id="tspan368">fog3−eis −</tspan></text>
      <text
         xml:space="preserve"
         transform="matrix(1,0,0,-1,213.61,20.52)"
         style="font-variant:normal;font-weight:normal;font-size:9px;font-family:Helvetica;-inkscape-font-specification:Helvetica;writing-mode:lr-tb;fill:#4d4d4d;fill-opacity:1;fill-rule:nonzero;stroke:none"
         id="text374"><tspan
           x="0 2.2320001 7.2360001 12.24 17.243999 22.5 27.504 29.502001"
           y="0"
           id="tspan372">fog2−eis</tspan></text>
      <text
         xml:space="preserve"
         transform="matrix(1,0,0,-1,273.28,30.02)"
         style="font-variant:normal;font-weight:normal;font-size:9px;font-family:Helvetica;-inkscape-font-specification:Helvetica;writing-mode:lr-tb;fill:#4d4d4d;fill-opacity:1;fill-rule:nonzero;stroke:none"
         id="text378"><tspan
           x="0 5.0040002 10.008 12.51 17.334 23.697001 28.431 32.931 37.935001 43.191002 48.195 50.193001 54.693001 57.195"
           y="0"
           id="tspan376">gateway1−eis −</tspan></text>
      <text
         xml:space="preserve"
         transform="matrix(1,0,0,-1,282.86,20.52)"
         style="font-variant:normal;font-weight:normal;font-size:9px;font-family:Helvetica;-inkscape-font-specification:Helvetica;writing-mode:lr-tb;fill:#4d4d4d;fill-opacity:1;fill-rule:nonzero;stroke:none"
         id="text382"><tspan
           x="0 4.5 6.4980001 11.502 16.506001 21.51 26.514 31.77 36.773998 38.771999"
           y="0"
           id="tspan380">cloud1−eis</tspan></text>
      <text
         xml:space="preserve"
         transform="matrix(1,0,0,-1,347.17,30.02)"
         style="font-variant:normal;font-weight:normal;font-size:9px;font-family:Helvetica;-inkscape-font-specification:Helvetica;writing-mode:lr-tb;fill:#4d4d4d;fill-opacity:1;fill-rule:nonzero;stroke:none"
         id="text386"><tspan
           x="0 5.0040002 10.008 12.51 17.334 23.697001 28.431 32.931 37.935001 43.191002 48.195 50.193001 54.693001 57.195"
           y="0"
           id="tspan384">gateway1−eis −</tspan></text>
      <text
         xml:space="preserve"
         transform="matrix(1,0,0,-1,361.39,20.52)"
         style="font-variant:normal;font-weight:normal;font-size:9px;font-family:Helvetica;-inkscape-font-specification:Helvetica;writing-mode:lr-tb;fill:#4d4d4d;fill-opacity:1;fill-rule:nonzero;stroke:none"
         id="text390"><tspan
           x="0 2.2320001 7.2360001 12.24 17.243999 22.5 27.504 29.502001"
           y="0"
           id="tspan388">fog1−eis</tspan></text>
      <text
         xml:space="preserve"
         transform="matrix(1,0,0,-1,421.06,30.02)"
         style="font-variant:normal;font-weight:normal;font-size:9px;font-family:Helvetica;-inkscape-font-specification:Helvetica;writing-mode:lr-tb;fill:#4d4d4d;fill-opacity:1;fill-rule:nonzero;stroke:none"
         id="text394"><tspan
           x="0 5.0040002 10.008 12.51 17.334 23.697001 28.431 32.931 37.935001 43.191002 48.195 50.193001 54.693001 57.195"
           y="0"
           id="tspan392">gateway1−eis −</tspan></text>
      <text
         xml:space="preserve"
         transform="matrix(1,0,0,-1,435.29,20.52)"
         style="font-variant:normal;font-weight:normal;font-size:9px;font-family:Helvetica;-inkscape-font-specification:Helvetica;writing-mode:lr-tb;fill:#4d4d4d;fill-opacity:1;fill-rule:nonzero;stroke:none"
         id="text398"><tspan
           x="0 2.2320001 7.2360001 12.24 17.243999 22.5 27.504 29.502001"
           y="0"
           id="tspan396">fog2−eis</tspan></text>
      <text
         xml:space="preserve"
         transform="matrix(1,0,0,-1,494.96,30.02)"
         style="font-variant:normal;font-weight:normal;font-size:9px;font-family:Helvetica;-inkscape-font-specification:Helvetica;writing-mode:lr-tb;fill:#4d4d4d;fill-opacity:1;fill-rule:nonzero;stroke:none"
         id="text402"><tspan
           x="0 5.0040002 10.008 12.51 17.334 23.697001 28.431 32.931 37.935001 43.191002 48.195 50.193001 54.693001 57.195"
           y="0"
           id="tspan400">gateway1−eis −</tspan></text>
      <text
         xml:space="preserve"
         transform="matrix(1,0,0,-1,509.18,20.52)"
         style="font-variant:normal;font-weight:normal;font-size:9px;font-family:Helvetica;-inkscape-font-specification:Helvetica;writing-mode:lr-tb;fill:#4d4d4d;fill-opacity:1;fill-rule:nonzero;stroke:none"
         id="text406"><tspan
           x="0 2.2320001 7.2360001 12.24 17.243999 22.5 27.504 29.502001"
           y="0"
           id="tspan404">fog3−eis</tspan></text>
    </g>
    <g
       id="g408" />
    <g
       id="g410" />
    <g
       id="g412" />
    <g
       id="g414" />
    <g
       id="g416" />
    <g
       id="g418" />
    <g
       id="g420" />
    <g
       id="g422" />
    <g
       id="g424">
      <text
         xml:space="preserve"
         transform="matrix(1,0,0,-1,194.91,7.9)"
         style="font-variant:normal;font-weight:normal;font-size:11px;font-family:Helvetica;-inkscape-font-specification:Helvetica;writing-mode:lr-tb;fill:#000000;fill-opacity:1;fill-rule:nonzero;stroke:none"
         id="text428"><tspan
           x="0 7.3369999 13.453 19.569 23.232 28.732 34.848 37.905998 45.243 51.359001 57.474998 59.917 62.359001 67.859001 73.974998 77.032997 79.474998 85.591003 91.707001 97.822998 104.247 107.305 115.247 121.363 126.863 129.92101 132.36301 138.479 144.595 147.653 150.095 156.211 162.327 165.38499 172.722 178.838 184.95399 187.396 189.838 195.338 201.45399 204.51199 206.95399 213.07001"
           y="0"
           id="tspan426">Source Application − Destination Application</tspan></text>
    </g>
    <g
       id="g430" />
    <g
       id="g432">
      <text
         xml:space="preserve"
         transform="matrix(0,1,1,0,13.38,46.5)"
         style="font-variant:normal;font-weight:normal;font-size:11px;font-family:Helvetica;-inkscape-font-specification:Helvetica;writing-mode:lr-tb;fill:#000000;fill-opacity:1;fill-rule:nonzero;stroke:none"
         id="text436"><tspan
           x="0 7.3369999 13.453 19.569 22.011 24.452999 29.952999 36.069 39.126999 41.569 47.685001 53.800999 56.859001 64.801003 70.917 76.417 82.532997 88.649002 94.764999 100.265 106.381 109.439 116.16 118.602 127.765 133.881 136.939 140.60201 149.765 155.265"
           y="0"
           id="tspan434">Application Response Time (ms)</tspan></text>
    </g>
    <g
       id="g438" />
    <g
       id="g440" />
    <g
       id="g442" />
    <g
       id="g444" />
    <g
       id="g446" />
    <g
       id="g448" />
    <g
       id="g450" />
    <g
       id="g452" />
    <g
       id="g454" />
    <g
       id="g456" />
    <g
       id="g458" />
    <g
       id="g460" />
    <g
       id="g462" />
    <g
       id="g464" />
    <g
       id="g466" />
    <g
       id="g468" />
    <g
       id="g470" />
    <g
       id="g472" />
    <g
       id="g474" />
    <g
       id="g476" />
  </g>
</svg>
