<?xml version="1.0" encoding="UTF-8" standalone="no"?>
<!-- Created with Inkscape (http://www.inkscape.org/) -->

<svg
   version="1.1"
   id="svg2"
   width="768"
   height="288"
   viewBox="0 0 768 288"
   xmlns="http://www.w3.org/2000/svg"
   xmlns:svg="http://www.w3.org/2000/svg">
  <defs
     id="defs6">
    <clipPath
       clipPathUnits="userSpaceOnUse"
       id="clipPath28">
      <path
         d="M 0,0 H 288 V 216 H 0 Z"
         id="path26" />
    </clipPath>
    <clipPath
       clipPathUnits="userSpaceOnUse"
       id="clipPath38">
      <path
         d="M 28.47,31.91 H 282.52 V 192.85 H 28.47 Z"
         id="path36" />
    </clipPath>
    <clipPath
       clipPathUnits="userSpaceOnUse"
       id="clipPath106">
      <path
         d="M 28.47,31.91 H 282.52 V 192.85 H 28.47 Z"
         id="path104" />
    </clipPath>
    <clipPath
       clipPathUnits="userSpaceOnUse"
       id="clipPath118">
      <path
         d="M 28.47,31.91 H 282.52 V 192.85 H 28.47 Z"
         id="path116" />
    </clipPath>
    <clipPath
       clipPathUnits="userSpaceOnUse"
       id="clipPath128">
      <path
         d="M 28.47,31.91 H 282.52 V 192.85 H 28.47 Z"
         id="path126" />
    </clipPath>
    <clipPath
       clipPathUnits="userSpaceOnUse"
       id="clipPath140">
      <path
         d="M 28.47,31.91 H 282.52 V 192.85 H 28.47 Z"
         id="path138" />
    </clipPath>
    <clipPath
       clipPathUnits="userSpaceOnUse"
       id="clipPath150">
      <path
         d="M 28.47,31.91 H 282.52 V 192.85 H 28.47 Z"
         id="path148" />
    </clipPath>
    <clipPath
       clipPathUnits="userSpaceOnUse"
       id="clipPath162">
      <path
         d="M 28.47,31.91 H 282.52 V 192.85 H 28.47 Z"
         id="path160" />
    </clipPath>
    <clipPath
       clipPathUnits="userSpaceOnUse"
       id="clipPath172">
      <path
         d="M 28.47,31.91 H 282.52 V 192.85 H 28.47 Z"
         id="path170" />
    </clipPath>
    <clipPath
       clipPathUnits="userSpaceOnUse"
       id="clipPath184">
      <path
         d="M 28.47,31.91 H 282.52 V 192.85 H 28.47 Z"
         id="path182" />
    </clipPath>
    <clipPath
       clipPathUnits="userSpaceOnUse"
       id="clipPath360">
      <path
         d="M 288,0 H 576 V 216 H 288 Z"
         id="path358" />
    </clipPath>
    <clipPath
       clipPathUnits="userSpaceOnUse"
       id="clipPath370">
      <path
         d="M 326.48,31.91 H 570.52 V 192.85 H 326.48 Z"
         id="path368" />
    </clipPath>
    <clipPath
       clipPathUnits="userSpaceOnUse"
       id="clipPath438">
      <path
         d="M 326.48,31.91 H 570.52 V 192.85 H 326.48 Z"
         id="path436" />
    </clipPath>
    <clipPath
       clipPathUnits="userSpaceOnUse"
       id="clipPath450">
      <path
         d="M 326.48,31.91 H 570.52 V 192.85 H 326.48 Z"
         id="path448" />
    </clipPath>
    <clipPath
       clipPathUnits="userSpaceOnUse"
       id="clipPath460">
      <path
         d="M 326.48,31.91 H 570.52 V 192.85 H 326.48 Z"
         id="path458" />
    </clipPath>
    <clipPath
       clipPathUnits="userSpaceOnUse"
       id="clipPath472">
      <path
         d="M 326.48,31.91 H 570.52 V 192.85 H 326.48 Z"
         id="path470" />
    </clipPath>
    <clipPath
       clipPathUnits="userSpaceOnUse"
       id="clipPath482">
      <path
         d="M 326.48,31.91 H 570.52 V 192.85 H 326.48 Z"
         id="path480" />
    </clipPath>
    <clipPath
       clipPathUnits="userSpaceOnUse"
       id="clipPath494">
      <path
         d="M 326.48,31.91 H 570.52 V 192.85 H 326.48 Z"
         id="path492" />
    </clipPath>
    <clipPath
       clipPathUnits="userSpaceOnUse"
       id="clipPath504">
      <path
         d="M 326.48,31.91 H 570.52 V 192.85 H 326.48 Z"
         id="path502" />
    </clipPath>
    <clipPath
       clipPathUnits="userSpaceOnUse"
       id="clipPath516">
      <path
         d="M 326.48,31.91 H 570.52 V 192.85 H 326.48 Z"
         id="path514" />
    </clipPath>
  </defs>
  <g
     id="g8"
     transform="matrix(1.3333333,0,0,-1.3333333,0,288)">
    <g
       id="g10" />
    <g
       id="g12" />
    <g
       id="g14" />
    <g
       id="g16" />
    <g
       id="g18" />
    <g
       id="g20" />
    <g
       id="g22">
      <g
         id="g24"
         clip-path="url(#clipPath28)" />
    </g>
    <g
       id="g30" />
    <g
       id="g32">
      <g
         id="g34"
         clip-path="url(#clipPath38)">
        <path
           d="M 28.47,56.42 H 282.52"
           style="fill:none;stroke:#ebebeb;stroke-width:0.53;stroke-linecap:butt;stroke-linejoin:round;stroke-miterlimit:10;stroke-dasharray:none;stroke-opacity:1"
           id="path40" />
        <path
           d="M 28.47,90.82 H 282.52"
           style="fill:none;stroke:#ebebeb;stroke-width:0.53;stroke-linecap:butt;stroke-linejoin:round;stroke-miterlimit:10;stroke-dasharray:none;stroke-opacity:1"
           id="path42" />
        <path
           d="M 28.47,125.22 H 282.52"
           style="fill:none;stroke:#ebebeb;stroke-width:0.53;stroke-linecap:butt;stroke-linejoin:round;stroke-miterlimit:10;stroke-dasharray:none;stroke-opacity:1"
           id="path44" />
        <path
           d="M 28.47,159.61 H 282.52"
           style="fill:none;stroke:#ebebeb;stroke-width:0.53;stroke-linecap:butt;stroke-linejoin:round;stroke-miterlimit:10;stroke-dasharray:none;stroke-opacity:1"
           id="path46" />
        <path
           d="M 28.47,39.23 H 282.52"
           style="fill:none;stroke:#ebebeb;stroke-width:1.07;stroke-linecap:butt;stroke-linejoin:round;stroke-miterlimit:10;stroke-dasharray:none;stroke-opacity:1"
           id="path48" />
        <path
           d="M 28.47,73.62 H 282.52"
           style="fill:none;stroke:#ebebeb;stroke-width:1.07;stroke-linecap:butt;stroke-linejoin:round;stroke-miterlimit:10;stroke-dasharray:none;stroke-opacity:1"
           id="path50" />
        <path
           d="M 28.47,108.02 H 282.52"
           style="fill:none;stroke:#ebebeb;stroke-width:1.07;stroke-linecap:butt;stroke-linejoin:round;stroke-miterlimit:10;stroke-dasharray:none;stroke-opacity:1"
           id="path52" />
        <path
           d="M 28.47,142.41 H 282.52"
           style="fill:none;stroke:#ebebeb;stroke-width:1.07;stroke-linecap:butt;stroke-linejoin:round;stroke-miterlimit:10;stroke-dasharray:none;stroke-opacity:1"
           id="path54" />
        <path
           d="M 28.47,176.81 H 282.52"
           style="fill:none;stroke:#ebebeb;stroke-width:1.07;stroke-linecap:butt;stroke-linejoin:round;stroke-miterlimit:10;stroke-dasharray:none;stroke-opacity:1"
           id="path56" />
        <path
           d="M 64.77,31.91 V 192.85"
           style="fill:none;stroke:#ebebeb;stroke-width:1.07;stroke-linecap:butt;stroke-linejoin:round;stroke-miterlimit:10;stroke-dasharray:none;stroke-opacity:1"
           id="path58" />
        <path
           d="M 125.25,31.91 V 192.85"
           style="fill:none;stroke:#ebebeb;stroke-width:1.07;stroke-linecap:butt;stroke-linejoin:round;stroke-miterlimit:10;stroke-dasharray:none;stroke-opacity:1"
           id="path60" />
        <path
           d="M 185.74,31.91 V 192.85"
           style="fill:none;stroke:#ebebeb;stroke-width:1.07;stroke-linecap:butt;stroke-linejoin:round;stroke-miterlimit:10;stroke-dasharray:none;stroke-opacity:1"
           id="path62" />
        <path
           d="M 246.23,31.91 V 192.85"
           style="fill:none;stroke:#ebebeb;stroke-width:1.07;stroke-linecap:butt;stroke-linejoin:round;stroke-miterlimit:10;stroke-dasharray:none;stroke-opacity:1"
           id="path64" />
        <path
           d="M 42.08,39.23 H 87.45 V 96.67 H 42.08 Z"
           style="fill:#dae8fc;fill-opacity:1;fill-rule:nonzero;stroke:none"
           id="path66" />
        <path
           d="m 102.57,39.23 h 45.37 v 92.13 h -45.37 z"
           style="fill:#d5e8d4;fill-opacity:1;fill-rule:nonzero;stroke:none"
           id="path68" />
        <path
           d="m 163.06,39.23 h 45.37 v 79.59 h -45.37 z"
           style="fill:#d5e8d4;fill-opacity:1;fill-rule:nonzero;stroke:none"
           id="path70" />
        <path
           d="m 223.55,39.23 h 45.37 v 88.21 h -45.37 z"
           style="fill:#6d8764;fill-opacity:1;fill-rule:nonzero;stroke:none"
           id="path72" />
        <path
           d="M 55.69,111.23 H 73.84"
           style="fill:none;stroke:#0000ff;stroke-width:1.07;stroke-linecap:butt;stroke-linejoin:round;stroke-miterlimit:10;stroke-dasharray:none;stroke-opacity:1"
           id="path74" />
        <path
           d="M 64.77,111.23 V 82.1"
           style="fill:none;stroke:#0000ff;stroke-width:1.07;stroke-linecap:butt;stroke-linejoin:round;stroke-miterlimit:10;stroke-dasharray:none;stroke-opacity:1"
           id="path76" />
        <path
           d="M 55.69,82.1 H 73.84"
           style="fill:none;stroke:#0000ff;stroke-width:1.07;stroke-linecap:butt;stroke-linejoin:round;stroke-miterlimit:10;stroke-dasharray:none;stroke-opacity:1"
           id="path78" />
        <path
           d="m 116.18,151.77 h 18.15"
           style="fill:none;stroke:#0000ff;stroke-width:1.07;stroke-linecap:butt;stroke-linejoin:round;stroke-miterlimit:10;stroke-dasharray:none;stroke-opacity:1"
           id="path80" />
        <path
           d="M 125.25,151.77 V 110.94"
           style="fill:none;stroke:#0000ff;stroke-width:1.07;stroke-linecap:butt;stroke-linejoin:round;stroke-miterlimit:10;stroke-dasharray:none;stroke-opacity:1"
           id="path82" />
        <path
           d="m 116.18,110.94 h 18.15"
           style="fill:none;stroke:#0000ff;stroke-width:1.07;stroke-linecap:butt;stroke-linejoin:round;stroke-miterlimit:10;stroke-dasharray:none;stroke-opacity:1"
           id="path84" />
        <path
           d="m 176.67,137.99 h 18.14"
           style="fill:none;stroke:#0000ff;stroke-width:1.07;stroke-linecap:butt;stroke-linejoin:round;stroke-miterlimit:10;stroke-dasharray:none;stroke-opacity:1"
           id="path86" />
        <path
           d="M 185.74,137.99 V 99.64"
           style="fill:none;stroke:#0000ff;stroke-width:1.07;stroke-linecap:butt;stroke-linejoin:round;stroke-miterlimit:10;stroke-dasharray:none;stroke-opacity:1"
           id="path88" />
        <path
           d="m 176.67,99.64 h 18.14"
           style="fill:none;stroke:#0000ff;stroke-width:1.07;stroke-linecap:butt;stroke-linejoin:round;stroke-miterlimit:10;stroke-dasharray:none;stroke-opacity:1"
           id="path90" />
        <path
           d="M 237.15,144.68 H 255.3"
           style="fill:none;stroke:#0000ff;stroke-width:1.07;stroke-linecap:butt;stroke-linejoin:round;stroke-miterlimit:10;stroke-dasharray:none;stroke-opacity:1"
           id="path92" />
        <path
           d="m 246.23,144.68 v -34.5"
           style="fill:none;stroke:#0000ff;stroke-width:1.07;stroke-linecap:butt;stroke-linejoin:round;stroke-miterlimit:10;stroke-dasharray:none;stroke-opacity:1"
           id="path94" />
        <path
           d="M 237.15,110.18 H 255.3"
           style="fill:none;stroke:#0000ff;stroke-width:1.07;stroke-linecap:butt;stroke-linejoin:round;stroke-miterlimit:10;stroke-dasharray:none;stroke-opacity:1"
           id="path96" />
        <path
           d="m 52.74,89.41 h 24.05 -0.08 l 0.32,0.01 0.32,0.06 0.29,0.12 0.28,0.16 0.25,0.2 0.21,0.24 0.17,0.27 0.13,0.29 0.07,0.31 0.03,0.32 v 0 10.55 0 l -0.03,0.32 -0.07,0.31 -0.13,0.29 -0.17,0.27 -0.21,0.24 -0.25,0.21 -0.28,0.16 -0.29,0.11 -0.32,0.06 -0.24,0.02 H 52.74 l 0.24,-0.02 -0.32,0.02 -0.32,-0.04 -0.31,-0.09 -0.29,-0.14 -0.26,-0.18 -0.23,-0.22 -0.19,-0.26 -0.15,-0.28 -0.1,-0.3 -0.05,-0.32 -0.01,-0.16 V 91.39 l 0.01,0.16 v -0.32 l 0.05,-0.31 0.1,-0.31 0.15,-0.28 0.19,-0.25 0.23,-0.23 0.26,-0.18 0.29,-0.13 0.31,-0.09 0.32,-0.04 z"
           style="fill:#ffffff;fill-opacity:1;fill-rule:nonzero;stroke:#000000;stroke-width:0.53;stroke-linecap:round;stroke-linejoin:round;stroke-miterlimit:10;stroke-dasharray:none;stroke-opacity:1"
           id="path98" />
      </g>
    </g>
    <g
       id="g100">
      <g
         id="g102"
         clip-path="url(#clipPath106)">
        <text
           xml:space="preserve"
           transform="matrix(1,0,0,-1,54.06,92.72)"
           style="font-variant:normal;font-weight:normal;font-size:11px;font-family:Helvetica;-inkscape-font-specification:Helvetica;writing-mode:lr-tb;fill:#000000;fill-opacity:1;fill-rule:nonzero;stroke:none"
           id="text110"><tspan
             x="0 6.1160002 9.1739998 15.29"
             y="0"
             id="tspan108">3.34</tspan></text>
      </g>
    </g>
    <g
       id="g112">
      <g
         id="g114"
         clip-path="url(#clipPath118)">
        <path
           d="m 113.23,124.09 h 24.05 l -0.08,0.01 0.32,0.01 0.31,0.06 0.3,0.12 0.28,0.16 0.25,0.2 0.21,0.24 0.17,0.27 0.13,0.29 0.07,0.31 0.03,0.32 v 0 10.55 0 l -0.03,0.32 -0.07,0.31 -0.13,0.29 -0.17,0.27 -0.21,0.24 -0.25,0.2 -0.28,0.16 -0.3,0.12 -0.31,0.06 -0.24,0.02 h -24.05 l 0.23,-0.02 -0.31,0.01 -0.32,-0.03 -0.31,-0.09 -0.29,-0.14 -0.26,-0.18 -0.23,-0.22 -0.19,-0.26 -0.15,-0.28 -0.1,-0.31 -0.06,-0.31 v -0.16 -10.55 0.16 -0.32 l 0.06,-0.31 0.1,-0.31 0.15,-0.28 0.19,-0.26 0.23,-0.22 0.26,-0.18 0.29,-0.14 0.31,-0.09 0.32,-0.03 z"
           style="fill:#ffffff;fill-opacity:1;fill-rule:nonzero;stroke:#000000;stroke-width:0.53;stroke-linecap:round;stroke-linejoin:round;stroke-miterlimit:10;stroke-dasharray:none;stroke-opacity:1"
           id="path120" />
      </g>
    </g>
    <g
       id="g122">
      <g
         id="g124"
         clip-path="url(#clipPath128)">
        <text
           xml:space="preserve"
           transform="matrix(1,0,0,-1,114.55,127.41)"
           style="font-variant:normal;font-weight:normal;font-size:11px;font-family:Helvetica;-inkscape-font-specification:Helvetica;writing-mode:lr-tb;fill:#000000;fill-opacity:1;fill-rule:nonzero;stroke:none"
           id="text132"><tspan
             x="0 6.1160002 9.1739998 15.29"
             y="0"
             id="tspan130">5.36</tspan></text>
      </g>
    </g>
    <g
       id="g134">
      <g
         id="g136"
         clip-path="url(#clipPath140)">
        <path
           d="m 173.71,111.56 h 24.06 -0.08 l 0.32,0.01 0.31,0.07 0.3,0.11 0.28,0.16 0.24,0.2 0.22,0.24 0.17,0.27 0.12,0.29 0.08,0.32 0.03,0.31 v 0 10.55 0 l -0.03,0.32 -0.08,0.31 -0.12,0.3 -0.17,0.27 -0.22,0.23 -0.24,0.21 -0.28,0.16 -0.3,0.11 -0.31,0.06 -0.24,0.02 h -24.06 l 0.24,-0.02 -0.32,0.02 -0.31,-0.04 -0.31,-0.09 -0.29,-0.14 -0.26,-0.18 -0.23,-0.22 -0.2,-0.26 -0.15,-0.28 -0.1,-0.3 -0.05,-0.32 v -0.16 -10.55 0.16 -0.32 l 0.05,-0.31 0.1,-0.3 0.15,-0.29 0.2,-0.25 0.23,-0.23 0.26,-0.18 0.29,-0.13 0.31,-0.09 0.31,-0.04 z"
           style="fill:#ffffff;fill-opacity:1;fill-rule:nonzero;stroke:#000000;stroke-width:0.53;stroke-linecap:round;stroke-linejoin:round;stroke-miterlimit:10;stroke-dasharray:none;stroke-opacity:1"
           id="path142" />
      </g>
    </g>
    <g
       id="g144">
      <g
         id="g146"
         clip-path="url(#clipPath150)">
        <text
           xml:space="preserve"
           transform="matrix(1,0,0,-1,175.04,114.87)"
           style="font-variant:normal;font-weight:normal;font-size:11px;font-family:Helvetica;-inkscape-font-specification:Helvetica;writing-mode:lr-tb;fill:#000000;fill-opacity:1;fill-rule:nonzero;stroke:none"
           id="text154"><tspan
             x="0 6.1160002 9.1739998 15.29"
             y="0"
             id="tspan152">4.63</tspan></text>
      </g>
    </g>
    <g
       id="g156">
      <g
         id="g158"
         clip-path="url(#clipPath162)">
        <path
           d="m 234.2,120.17 h 24.06 -0.08 l 0.32,0.02 0.31,0.06 0.3,0.11 0.27,0.16 0.25,0.21 0.21,0.24 0.18,0.27 0.12,0.29 0.08,0.31 0.02,0.32 v 0 10.55 0 l -0.02,0.32 -0.08,0.31 -0.12,0.29 -0.18,0.27 -0.21,0.24 -0.25,0.2 -0.27,0.16 -0.3,0.12 -0.31,0.06 -0.24,0.01 H 234.2 l 0.24,-0.01 -0.32,0.01 -0.32,-0.04 -0.3,-0.08 -0.29,-0.14 -0.27,-0.18 -0.23,-0.22 -0.19,-0.26 -0.15,-0.28 -0.1,-0.31 -0.05,-0.31 -0.01,-0.16 v -10.55 l 0.01,0.16 V 122 l 0.05,-0.32 0.1,-0.3 0.15,-0.28 0.19,-0.26 0.23,-0.22 0.27,-0.18 0.29,-0.14 0.3,-0.09 0.32,-0.04 z"
           style="fill:#ffffff;fill-opacity:1;fill-rule:nonzero;stroke:#000000;stroke-width:0.53;stroke-linecap:round;stroke-linejoin:round;stroke-miterlimit:10;stroke-dasharray:none;stroke-opacity:1"
           id="path164" />
      </g>
    </g>
    <g
       id="g166">
      <g
         id="g168"
         clip-path="url(#clipPath172)">
        <text
           xml:space="preserve"
           transform="matrix(1,0,0,-1,235.52,123.48)"
           style="font-variant:normal;font-weight:normal;font-size:11px;font-family:Helvetica;-inkscape-font-specification:Helvetica;writing-mode:lr-tb;fill:#000000;fill-opacity:1;fill-rule:nonzero;stroke:none"
           id="text176"><tspan
             x="0 6.1160002 9.1739998 15.29"
             y="0"
             id="tspan174">5.13</tspan></text>
      </g>
    </g>
    <g
       id="g178">
      <g
         id="g180"
         clip-path="url(#clipPath184)" />
    </g>
    <g
       id="g186" />
    <g
       id="g188" />
    <g
       id="g190" />
    <g
       id="g192" />
    <g
       id="g194" />
    <g
       id="g196" />
    <g
       id="g198" />
    <g
       id="g200" />
    <g
       id="g202" />
    <g
       id="g204" />
    <g
       id="g206" />
    <g
       id="g208" />
    <g
       id="g210">
      <text
         xml:space="preserve"
         transform="matrix(1,0,0,-1,18.54,35.99)"
         style="font-variant:normal;font-weight:normal;font-size:9px;font-family:Helvetica;-inkscape-font-specification:Helvetica;writing-mode:lr-tb;fill:#4d4d4d;fill-opacity:1;fill-rule:nonzero;stroke:none"
         id="text214"><tspan
           x="0"
           y="0"
           id="tspan212">0</tspan></text>
      <text
         xml:space="preserve"
         transform="matrix(1,0,0,-1,18.54,70.39)"
         style="font-variant:normal;font-weight:normal;font-size:9px;font-family:Helvetica;-inkscape-font-specification:Helvetica;writing-mode:lr-tb;fill:#4d4d4d;fill-opacity:1;fill-rule:nonzero;stroke:none"
         id="text218"><tspan
           x="0"
           y="0"
           id="tspan216">2</tspan></text>
      <text
         xml:space="preserve"
         transform="matrix(1,0,0,-1,18.54,104.79)"
         style="font-variant:normal;font-weight:normal;font-size:9px;font-family:Helvetica;-inkscape-font-specification:Helvetica;writing-mode:lr-tb;fill:#4d4d4d;fill-opacity:1;fill-rule:nonzero;stroke:none"
         id="text222"><tspan
           x="0"
           y="0"
           id="tspan220">4</tspan></text>
      <text
         xml:space="preserve"
         transform="matrix(1,0,0,-1,18.54,139.18)"
         style="font-variant:normal;font-weight:normal;font-size:9px;font-family:Helvetica;-inkscape-font-specification:Helvetica;writing-mode:lr-tb;fill:#4d4d4d;fill-opacity:1;fill-rule:nonzero;stroke:none"
         id="text226"><tspan
           x="0"
           y="0"
           id="tspan224">6</tspan></text>
      <text
         xml:space="preserve"
         transform="matrix(1,0,0,-1,18.54,173.58)"
         style="font-variant:normal;font-weight:normal;font-size:9px;font-family:Helvetica;-inkscape-font-specification:Helvetica;writing-mode:lr-tb;fill:#4d4d4d;fill-opacity:1;fill-rule:nonzero;stroke:none"
         id="text230"><tspan
           x="0"
           y="0"
           id="tspan228">8</tspan></text>
    </g>
    <g
       id="g232" />
    <g
       id="g234" />
    <g
       id="g236" />
    <g
       id="g238" />
    <g
       id="g240" />
    <g
       id="g242" />
    <g
       id="g244" />
    <g
       id="g246" />
    <g
       id="g248" />
    <g
       id="g250" />
    <g
       id="g252" />
    <g
       id="g254" />
    <g
       id="g256" />
    <g
       id="g258">
      <text
         xml:space="preserve"
         transform="matrix(1,0,0,-1,51.51,20.52)"
         style="font-variant:normal;font-weight:normal;font-size:9px;font-family:Helvetica;-inkscape-font-specification:Helvetica;writing-mode:lr-tb;fill:#4d4d4d;fill-opacity:1;fill-rule:nonzero;stroke:none"
         id="text262"><tspan
           x="0 4.5 6.4980001 11.502 16.506001 21.51"
           y="0"
           id="tspan260">cloud1</tspan></text>
      <text
         xml:space="preserve"
         transform="matrix(1,0,0,-1,116.63,20.52)"
         style="font-variant:normal;font-weight:normal;font-size:9px;font-family:Helvetica;-inkscape-font-specification:Helvetica;writing-mode:lr-tb;fill:#4d4d4d;fill-opacity:1;fill-rule:nonzero;stroke:none"
         id="text266"><tspan
           x="0 2.2320001 7.2360001 12.24"
           y="0"
           id="tspan264">fog1</tspan></text>
      <text
         xml:space="preserve"
         transform="matrix(1,0,0,-1,177.12,20.52)"
         style="font-variant:normal;font-weight:normal;font-size:9px;font-family:Helvetica;-inkscape-font-specification:Helvetica;writing-mode:lr-tb;fill:#4d4d4d;fill-opacity:1;fill-rule:nonzero;stroke:none"
         id="text270"><tspan
           x="0 2.2320001 7.2360001 12.24"
           y="0"
           id="tspan268">fog2</tspan></text>
      <text
         xml:space="preserve"
         transform="matrix(1,0,0,-1,237.61,20.52)"
         style="font-variant:normal;font-weight:normal;font-size:9px;font-family:Helvetica;-inkscape-font-specification:Helvetica;writing-mode:lr-tb;fill:#4d4d4d;fill-opacity:1;fill-rule:nonzero;stroke:none"
         id="text274"><tspan
           x="0 2.2320001 7.2360001 12.24"
           y="0"
           id="tspan272">fog3</tspan></text>
    </g>
    <g
       id="g276" />
    <g
       id="g278" />
    <g
       id="g280" />
    <g
       id="g282" />
    <g
       id="g284" />
    <g
       id="g286" />
    <g
       id="g288" />
    <g
       id="g290" />
    <g
       id="g292">
      <text
         xml:space="preserve"
         transform="matrix(1,0,0,-1,142.35,7.9)"
         style="font-variant:normal;font-weight:normal;font-size:11px;font-family:Helvetica;-inkscape-font-specification:Helvetica;writing-mode:lr-tb;fill:#000000;fill-opacity:1;fill-rule:nonzero;stroke:none"
         id="text296"><tspan
           x="0 7.9419999 14.058 20.174"
           y="0"
           id="tspan294">Node</tspan></text>
    </g>
    <g
       id="g298" />
    <g
       id="g300">
      <text
         xml:space="preserve"
         transform="matrix(0,1,1,0,13.38,78.46)"
         style="font-variant:normal;font-weight:normal;font-size:11px;font-family:Helvetica;-inkscape-font-specification:Helvetica;writing-mode:lr-tb;fill:#000000;fill-opacity:1;fill-rule:nonzero;stroke:none"
         id="text304"><tspan
           x="0 7.9419999 11 13.442 15.884 18.326 23.826 29.941999 33 35.442001 41.557999 47.674 50.731998 54.395 64.174004"
           y="0"
           id="tspan302">Utilization (%)</tspan></text>
    </g>
    <g
       id="g306" />
    <g
       id="g308" />
    <g
       id="g310" />
    <g
       id="g312" />
    <g
       id="g314" />
    <g
       id="g316" />
    <g
       id="g318" />
    <g
       id="g320" />
    <g
       id="g322" />
    <g
       id="g324" />
    <g
       id="g326" />
    <g
       id="g328" />
    <g
       id="g330" />
    <g
       id="g332" />
    <g
       id="g334" />
    <g
       id="g336">
      <text
         xml:space="preserve"
         transform="matrix(1,0,0,-1,28.47,201.19)"
         style="font-variant:normal;font-weight:normal;font-size:13px;font-family:Helvetica;-inkscape-font-specification:Helvetica;writing-mode:lr-tb;fill:#000000;fill-opacity:1;fill-rule:nonzero;stroke:none"
         id="text340"><tspan
           x="0 9.3859997 18.056999 27.443001 31.056999 40.443001 44.056999 46.943001 49.828999 52.715 59.215 66.443001 70.056999 72.943001 80.170998"
           y="0"
           id="tspan338">CPU Utilization</tspan></text>
    </g>
    <g
       id="g342" />
    <g
       id="g344" />
    <g
       id="g346" />
    <g
       id="g348" />
    <g
       id="g350" />
    <g
       id="g352" />
    <g
       id="g354">
      <g
         id="g356"
         clip-path="url(#clipPath360)" />
    </g>
    <g
       id="g362" />
    <g
       id="g364">
      <g
         id="g366"
         clip-path="url(#clipPath370)">
        <path
           d="M 326.48,58.4 H 570.52"
           style="fill:none;stroke:#ebebeb;stroke-width:0.53;stroke-linecap:butt;stroke-linejoin:round;stroke-miterlimit:10;stroke-dasharray:none;stroke-opacity:1"
           id="path372" />
        <path
           d="M 326.48,96.74 H 570.52"
           style="fill:none;stroke:#ebebeb;stroke-width:0.53;stroke-linecap:butt;stroke-linejoin:round;stroke-miterlimit:10;stroke-dasharray:none;stroke-opacity:1"
           id="path374" />
        <path
           d="M 326.48,135.08 H 570.52"
           style="fill:none;stroke:#ebebeb;stroke-width:0.53;stroke-linecap:butt;stroke-linejoin:round;stroke-miterlimit:10;stroke-dasharray:none;stroke-opacity:1"
           id="path376" />
        <path
           d="M 326.48,173.42 H 570.52"
           style="fill:none;stroke:#ebebeb;stroke-width:0.53;stroke-linecap:butt;stroke-linejoin:round;stroke-miterlimit:10;stroke-dasharray:none;stroke-opacity:1"
           id="path378" />
        <path
           d="M 326.48,39.23 H 570.52"
           style="fill:none;stroke:#ebebeb;stroke-width:1.07;stroke-linecap:butt;stroke-linejoin:round;stroke-miterlimit:10;stroke-dasharray:none;stroke-opacity:1"
           id="path380" />
        <path
           d="M 326.48,77.57 H 570.52"
           style="fill:none;stroke:#ebebeb;stroke-width:1.07;stroke-linecap:butt;stroke-linejoin:round;stroke-miterlimit:10;stroke-dasharray:none;stroke-opacity:1"
           id="path382" />
        <path
           d="M 326.48,115.91 H 570.52"
           style="fill:none;stroke:#ebebeb;stroke-width:1.07;stroke-linecap:butt;stroke-linejoin:round;stroke-miterlimit:10;stroke-dasharray:none;stroke-opacity:1"
           id="path384" />
        <path
           d="M 326.48,154.25 H 570.52"
           style="fill:none;stroke:#ebebeb;stroke-width:1.07;stroke-linecap:butt;stroke-linejoin:round;stroke-miterlimit:10;stroke-dasharray:none;stroke-opacity:1"
           id="path386" />
        <path
           d="M 326.48,192.59 H 570.52"
           style="fill:none;stroke:#ebebeb;stroke-width:1.07;stroke-linecap:butt;stroke-linejoin:round;stroke-miterlimit:10;stroke-dasharray:none;stroke-opacity:1"
           id="path388" />
        <path
           d="M 361.34,31.91 V 192.85"
           style="fill:none;stroke:#ebebeb;stroke-width:1.07;stroke-linecap:butt;stroke-linejoin:round;stroke-miterlimit:10;stroke-dasharray:none;stroke-opacity:1"
           id="path390" />
        <path
           d="M 419.45,31.91 V 192.85"
           style="fill:none;stroke:#ebebeb;stroke-width:1.07;stroke-linecap:butt;stroke-linejoin:round;stroke-miterlimit:10;stroke-dasharray:none;stroke-opacity:1"
           id="path392" />
        <path
           d="M 477.55,31.91 V 192.85"
           style="fill:none;stroke:#ebebeb;stroke-width:1.07;stroke-linecap:butt;stroke-linejoin:round;stroke-miterlimit:10;stroke-dasharray:none;stroke-opacity:1"
           id="path394" />
        <path
           d="M 535.66,31.91 V 192.85"
           style="fill:none;stroke:#ebebeb;stroke-width:1.07;stroke-linecap:butt;stroke-linejoin:round;stroke-miterlimit:10;stroke-dasharray:none;stroke-opacity:1"
           id="path396" />
        <path
           d="m 339.55,39.23 h 43.58 v 16.9 h -43.58 z"
           style="fill:#dae8fc;fill-opacity:1;fill-rule:nonzero;stroke:none"
           id="path398" />
        <path
           d="m 397.66,39.23 h 43.58 v 32.8 h -43.58 z"
           style="fill:#d5e8d4;fill-opacity:1;fill-rule:nonzero;stroke:none"
           id="path400" />
        <path
           d="m 455.76,39.23 h 43.58 v 64.69 h -43.58 z"
           style="fill:#d5e8d4;fill-opacity:1;fill-rule:nonzero;stroke:none"
           id="path402" />
        <path
           d="m 513.87,39.23 h 43.58 v 102.31 h -43.58 z"
           style="fill:#6d8764;fill-opacity:1;fill-rule:nonzero;stroke:none"
           id="path404" />
        <path
           d="m 352.63,57.37 h 17.43"
           style="fill:none;stroke:#0000ff;stroke-width:1.07;stroke-linecap:butt;stroke-linejoin:round;stroke-miterlimit:10;stroke-dasharray:none;stroke-opacity:1"
           id="path406" />
        <path
           d="M 361.34,57.37 V 54.89"
           style="fill:none;stroke:#0000ff;stroke-width:1.07;stroke-linecap:butt;stroke-linejoin:round;stroke-miterlimit:10;stroke-dasharray:none;stroke-opacity:1"
           id="path408" />
        <path
           d="m 352.63,54.89 h 17.43"
           style="fill:none;stroke:#0000ff;stroke-width:1.07;stroke-linecap:butt;stroke-linejoin:round;stroke-miterlimit:10;stroke-dasharray:none;stroke-opacity:1"
           id="path410" />
        <path
           d="m 410.73,74.62 h 17.43"
           style="fill:none;stroke:#0000ff;stroke-width:1.07;stroke-linecap:butt;stroke-linejoin:round;stroke-miterlimit:10;stroke-dasharray:none;stroke-opacity:1"
           id="path412" />
        <path
           d="M 419.45,74.62 V 69.44"
           style="fill:none;stroke:#0000ff;stroke-width:1.07;stroke-linecap:butt;stroke-linejoin:round;stroke-miterlimit:10;stroke-dasharray:none;stroke-opacity:1"
           id="path414" />
        <path
           d="m 410.73,69.44 h 17.43"
           style="fill:none;stroke:#0000ff;stroke-width:1.07;stroke-linecap:butt;stroke-linejoin:round;stroke-miterlimit:10;stroke-dasharray:none;stroke-opacity:1"
           id="path416" />
        <path
           d="m 468.84,107.41 h 17.43"
           style="fill:none;stroke:#0000ff;stroke-width:1.07;stroke-linecap:butt;stroke-linejoin:round;stroke-miterlimit:10;stroke-dasharray:none;stroke-opacity:1"
           id="path418" />
        <path
           d="m 477.55,107.41 v -6.99"
           style="fill:none;stroke:#0000ff;stroke-width:1.07;stroke-linecap:butt;stroke-linejoin:round;stroke-miterlimit:10;stroke-dasharray:none;stroke-opacity:1"
           id="path420" />
        <path
           d="m 468.84,100.42 h 17.43"
           style="fill:none;stroke:#0000ff;stroke-width:1.07;stroke-linecap:butt;stroke-linejoin:round;stroke-miterlimit:10;stroke-dasharray:none;stroke-opacity:1"
           id="path422" />
        <path
           d="m 526.94,143.73 h 17.43"
           style="fill:none;stroke:#0000ff;stroke-width:1.07;stroke-linecap:butt;stroke-linejoin:round;stroke-miterlimit:10;stroke-dasharray:none;stroke-opacity:1"
           id="path424" />
        <path
           d="m 535.66,143.73 v -4.38"
           style="fill:none;stroke:#0000ff;stroke-width:1.07;stroke-linecap:butt;stroke-linejoin:round;stroke-miterlimit:10;stroke-dasharray:none;stroke-opacity:1"
           id="path426" />
        <path
           d="m 526.94,139.35 h 17.43"
           style="fill:none;stroke:#0000ff;stroke-width:1.07;stroke-linecap:butt;stroke-linejoin:round;stroke-miterlimit:10;stroke-dasharray:none;stroke-opacity:1"
           id="path428" />
        <path
           d="m 346.26,70.65 h 30.17 -0.08 l 0.32,0.02 0.31,0.06 0.3,0.11 0.28,0.16 0.25,0.21 0.21,0.23 0.17,0.28 0.12,0.29 0.08,0.31 0.03,0.32 v 0 10.55 0 l -0.03,0.31 -0.08,0.32 -0.12,0.29 -0.17,0.27 -0.21,0.24 -0.25,0.2 -0.28,0.16 -0.3,0.11 -0.31,0.07 -0.24,0.01 h -30.17 l 0.24,-0.01 -0.32,0.01 -0.32,-0.04 -0.31,-0.09 -0.29,-0.13 -0.26,-0.18 -0.23,-0.23 -0.19,-0.25 -0.15,-0.29 -0.1,-0.3 -0.05,-0.31 -0.01,-0.16 V 72.64 l 0.01,0.16 v -0.32 l 0.05,-0.32 0.1,-0.3 0.15,-0.28 0.19,-0.26 0.23,-0.22 0.26,-0.18 0.29,-0.14 0.31,-0.09 0.32,-0.04 z"
           style="fill:#ffffff;fill-opacity:1;fill-rule:nonzero;stroke:#000000;stroke-width:0.53;stroke-linecap:round;stroke-linejoin:round;stroke-miterlimit:10;stroke-dasharray:none;stroke-opacity:1"
           id="path430" />
      </g>
    </g>
    <g
       id="g432">
      <g
         id="g434"
         clip-path="url(#clipPath438)">
        <text
           xml:space="preserve"
           transform="matrix(1,0,0,-1,347.58,73.96)"
           style="font-variant:normal;font-weight:normal;font-size:11px;font-family:Helvetica;-inkscape-font-specification:Helvetica;writing-mode:lr-tb;fill:#000000;fill-opacity:1;fill-rule:nonzero;stroke:none"
           id="text442"><tspan
             x="0 6.1160002 12.232 15.29 21.406"
             y="0"
             id="tspan440">11.02</tspan></text>
      </g>
    </g>
    <g
       id="g444">
      <g
         id="g446"
         clip-path="url(#clipPath450)">
        <path
           d="m 404.36,86.55 h 30.17 -0.08 l 0.32,0.01 0.32,0.07 0.3,0.11 0.27,0.16 0.25,0.2 0.21,0.24 0.17,0.27 0.13,0.3 0.08,0.31 0.02,0.32 v 0 10.55 0 l -0.02,0.31 -0.08,0.31 -0.13,0.3 -0.17,0.27 -0.21,0.24 -0.25,0.2 -0.27,0.16 -0.3,0.11 -0.32,0.07 -0.24,0.01 h -30.17 l 0.24,-0.01 -0.32,0.01 -0.31,-0.04 -0.31,-0.09 -0.29,-0.13 -0.26,-0.19 -0.23,-0.22 -0.2,-0.25 -0.15,-0.29 -0.1,-0.3 -0.05,-0.31 V 99.09 88.54 88.7 88.38 l 0.05,-0.32 0.1,-0.3 0.15,-0.28 0.2,-0.26 0.23,-0.22 0.26,-0.18 0.29,-0.14 0.31,-0.09 0.31,-0.04 z"
           style="fill:#ffffff;fill-opacity:1;fill-rule:nonzero;stroke:#000000;stroke-width:0.53;stroke-linecap:round;stroke-linejoin:round;stroke-miterlimit:10;stroke-dasharray:none;stroke-opacity:1"
           id="path452" />
      </g>
    </g>
    <g
       id="g454">
      <g
         id="g456"
         clip-path="url(#clipPath460)">
        <text
           xml:space="preserve"
           transform="matrix(1,0,0,-1,405.69,89.86)"
           style="font-variant:normal;font-weight:normal;font-size:11px;font-family:Helvetica;-inkscape-font-specification:Helvetica;writing-mode:lr-tb;fill:#000000;fill-opacity:1;fill-rule:nonzero;stroke:none"
           id="text464"><tspan
             x="0 6.1160002 12.232 15.29 21.406"
             y="0"
             id="tspan462">21.39</tspan></text>
      </g>
    </g>
    <g
       id="g466">
      <g
         id="g468"
         clip-path="url(#clipPath472)">
        <path
           d="m 462.47,118.43 h 30.17 l -0.08,0.01 0.32,0.01 0.31,0.06 0.3,0.12 0.28,0.16 0.25,0.2 0.21,0.24 0.17,0.27 0.12,0.29 0.08,0.31 0.03,0.32 v 0 10.55 0 l -0.03,0.32 -0.08,0.31 -0.12,0.29 -0.17,0.27 -0.21,0.24 -0.25,0.2 -0.28,0.16 -0.3,0.12 -0.31,0.06 -0.24,0.02 h -30.17 l 0.24,-0.02 -0.32,0.01 -0.32,-0.03 -0.31,-0.09 -0.29,-0.14 -0.26,-0.18 -0.23,-0.22 -0.19,-0.26 -0.15,-0.28 -0.1,-0.31 -0.05,-0.31 -0.01,-0.16 v -10.55 l 0.01,0.16 v -0.32 l 0.05,-0.31 0.1,-0.31 0.15,-0.28 0.19,-0.26 0.23,-0.22 0.26,-0.18 0.29,-0.14 0.31,-0.09 0.32,-0.03 z"
           style="fill:#ffffff;fill-opacity:1;fill-rule:nonzero;stroke:#000000;stroke-width:0.53;stroke-linecap:round;stroke-linejoin:round;stroke-miterlimit:10;stroke-dasharray:none;stroke-opacity:1"
           id="path474" />
      </g>
    </g>
    <g
       id="g476">
      <g
         id="g478"
         clip-path="url(#clipPath482)">
        <text
           xml:space="preserve"
           transform="matrix(1,0,0,-1,463.79,121.75)"
           style="font-variant:normal;font-weight:normal;font-size:11px;font-family:Helvetica;-inkscape-font-specification:Helvetica;writing-mode:lr-tb;fill:#000000;fill-opacity:1;fill-rule:nonzero;stroke:none"
           id="text486"><tspan
             x="0 6.1160002 12.232 15.29 21.406"
             y="0"
             id="tspan484">42.18</tspan></text>
      </g>
    </g>
    <g
       id="g488">
      <g
         id="g490"
         clip-path="url(#clipPath494)">
        <path
           d="m 520.57,156.06 h 30.17 -0.08 l 0.32,0.02 0.32,0.06 0.3,0.11 0.27,0.16 0.25,0.21 0.21,0.24 0.17,0.27 0.13,0.29 0.07,0.31 0.03,0.32 v 0 10.55 0 l -0.03,0.32 -0.07,0.31 -0.13,0.29 -0.17,0.27 -0.21,0.24 -0.25,0.2 -0.27,0.16 -0.3,0.12 -0.32,0.06 -0.24,0.01 h -30.17 l 0.24,-0.01 -0.32,0.01 -0.32,-0.04 -0.3,-0.09 -0.29,-0.13 -0.26,-0.18 -0.24,-0.23 -0.19,-0.25 -0.15,-0.28 -0.1,-0.31 -0.05,-0.31 -0.01,-0.16 v -10.55 l 0.01,0.16 v -0.32 l 0.05,-0.32 0.1,-0.3 0.15,-0.28 0.19,-0.26 0.24,-0.22 0.26,-0.18 0.29,-0.14 0.3,-0.09 0.32,-0.04 z"
           style="fill:#ffffff;fill-opacity:1;fill-rule:nonzero;stroke:#000000;stroke-width:0.53;stroke-linecap:round;stroke-linejoin:round;stroke-miterlimit:10;stroke-dasharray:none;stroke-opacity:1"
           id="path496" />
      </g>
    </g>
    <g
       id="g498">
      <g
         id="g500"
         clip-path="url(#clipPath504)">
        <text
           xml:space="preserve"
           transform="matrix(1,0,0,-1,521.9,159.37)"
           style="font-variant:normal;font-weight:normal;font-size:11px;font-family:Helvetica;-inkscape-font-specification:Helvetica;writing-mode:lr-tb;fill:#000000;fill-opacity:1;fill-rule:nonzero;stroke:none"
           id="text508"><tspan
             x="0 6.1160002 12.232 15.29 21.406"
             y="0"
             id="tspan506">66.71</tspan></text>
      </g>
    </g>
    <g
       id="g510">
      <g
         id="g512"
         clip-path="url(#clipPath516)" />
    </g>
    <g
       id="g518" />
    <g
       id="g520" />
    <g
       id="g522" />
    <g
       id="g524" />
    <g
       id="g526" />
    <g
       id="g528" />
    <g
       id="g530" />
    <g
       id="g532" />
    <g
       id="g534" />
    <g
       id="g536" />
    <g
       id="g538" />
    <g
       id="g540" />
    <g
       id="g542">
      <text
         xml:space="preserve"
         transform="matrix(1,0,0,-1,316.55,35.99)"
         style="font-variant:normal;font-weight:normal;font-size:9px;font-family:Helvetica;-inkscape-font-specification:Helvetica;writing-mode:lr-tb;fill:#4d4d4d;fill-opacity:1;fill-rule:nonzero;stroke:none"
         id="text546"><tspan
           x="0"
           y="0"
           id="tspan544">0</tspan></text>
      <text
         xml:space="preserve"
         transform="matrix(1,0,0,-1,311.54,74.34)"
         style="font-variant:normal;font-weight:normal;font-size:9px;font-family:Helvetica;-inkscape-font-specification:Helvetica;writing-mode:lr-tb;fill:#4d4d4d;fill-opacity:1;fill-rule:nonzero;stroke:none"
         id="text550"><tspan
           x="0 5.0040002"
           y="0"
           id="tspan548">25</tspan></text>
      <text
         xml:space="preserve"
         transform="matrix(1,0,0,-1,311.54,112.68)"
         style="font-variant:normal;font-weight:normal;font-size:9px;font-family:Helvetica;-inkscape-font-specification:Helvetica;writing-mode:lr-tb;fill:#4d4d4d;fill-opacity:1;fill-rule:nonzero;stroke:none"
         id="text554"><tspan
           x="0 5.0040002"
           y="0"
           id="tspan552">50</tspan></text>
      <text
         xml:space="preserve"
         transform="matrix(1,0,0,-1,311.54,151.02)"
         style="font-variant:normal;font-weight:normal;font-size:9px;font-family:Helvetica;-inkscape-font-specification:Helvetica;writing-mode:lr-tb;fill:#4d4d4d;fill-opacity:1;fill-rule:nonzero;stroke:none"
         id="text558"><tspan
           x="0 5.0040002"
           y="0"
           id="tspan556">75</tspan></text>
      <text
         xml:space="preserve"
         transform="matrix(1,0,0,-1,306.54,189.36)"
         style="font-variant:normal;font-weight:normal;font-size:9px;font-family:Helvetica;-inkscape-font-specification:Helvetica;writing-mode:lr-tb;fill:#4d4d4d;fill-opacity:1;fill-rule:nonzero;stroke:none"
         id="text562"><tspan
           x="0 5.0040002 10.008"
           y="0"
           id="tspan560">100</tspan></text>
    </g>
    <g
       id="g564" />
    <g
       id="g566" />
    <g
       id="g568" />
    <g
       id="g570" />
    <g
       id="g572" />
    <g
       id="g574" />
    <g
       id="g576" />
    <g
       id="g578" />
    <g
       id="g580" />
    <g
       id="g582" />
    <g
       id="g584" />
    <g
       id="g586" />
    <g
       id="g588" />
    <g
       id="g590">
      <text
         xml:space="preserve"
         transform="matrix(1,0,0,-1,348.09,20.52)"
         style="font-variant:normal;font-weight:normal;font-size:9px;font-family:Helvetica;-inkscape-font-specification:Helvetica;writing-mode:lr-tb;fill:#4d4d4d;fill-opacity:1;fill-rule:nonzero;stroke:none"
         id="text594"><tspan
           x="0 4.5 6.4980001 11.502 16.506001 21.51"
           y="0"
           id="tspan592">cloud1</tspan></text>
      <text
         xml:space="preserve"
         transform="matrix(1,0,0,-1,410.83,20.52)"
         style="font-variant:normal;font-weight:normal;font-size:9px;font-family:Helvetica;-inkscape-font-specification:Helvetica;writing-mode:lr-tb;fill:#4d4d4d;fill-opacity:1;fill-rule:nonzero;stroke:none"
         id="text598"><tspan
           x="0 2.2320001 7.2360001 12.24"
           y="0"
           id="tspan596">fog1</tspan></text>
      <text
         xml:space="preserve"
         transform="matrix(1,0,0,-1,468.93,20.52)"
         style="font-variant:normal;font-weight:normal;font-size:9px;font-family:Helvetica;-inkscape-font-specification:Helvetica;writing-mode:lr-tb;fill:#4d4d4d;fill-opacity:1;fill-rule:nonzero;stroke:none"
         id="text602"><tspan
           x="0 2.2320001 7.2360001 12.24"
           y="0"
           id="tspan600">fog2</tspan></text>
      <text
         xml:space="preserve"
         transform="matrix(1,0,0,-1,527.04,20.52)"
         style="font-variant:normal;font-weight:normal;font-size:9px;font-family:Helvetica;-inkscape-font-specification:Helvetica;writing-mode:lr-tb;fill:#4d4d4d;fill-opacity:1;fill-rule:nonzero;stroke:none"
         id="text606"><tspan
           x="0 2.2320001 7.2360001 12.24"
           y="0"
           id="tspan604">fog3</tspan></text>
    </g>
    <g
       id="g608" />
    <g
       id="g610" />
    <g
       id="g612" />
    <g
       id="g614" />
    <g
       id="g616" />
    <g
       id="g618" />
    <g
       id="g620" />
    <g
       id="g622" />
    <g
       id="g624">
      <text
         xml:space="preserve"
         transform="matrix(1,0,0,-1,435.36,7.9)"
         style="font-variant:normal;font-weight:normal;font-size:11px;font-family:Helvetica;-inkscape-font-specification:Helvetica;writing-mode:lr-tb;fill:#000000;fill-opacity:1;fill-rule:nonzero;stroke:none"
         id="text628"><tspan
           x="0 7.9419999 14.058 20.174"
           y="0"
           id="tspan626">Node</tspan></text>
    </g>
    <g
       id="g630" />
    <g
       id="g632">
      <text
         xml:space="preserve"
         transform="matrix(0,1,1,0,301.38,78.46)"
         style="font-variant:normal;font-weight:normal;font-size:11px;font-family:Helvetica;-inkscape-font-specification:Helvetica;writing-mode:lr-tb;fill:#000000;fill-opacity:1;fill-rule:nonzero;stroke:none"
         id="text636"><tspan
           x="0 7.9419999 11 13.442 15.884 18.326 23.826 29.941999 33 35.442001 41.557999 47.674 50.731998 54.395 64.174004"
           y="0"
           id="tspan634">Utilization (%)</tspan></text>
    </g>
    <g
       id="g638" />
    <g
       id="g640" />
    <g
       id="g642" />
    <g
       id="g644" />
    <g
       id="g646" />
    <g
       id="g648" />
    <g
       id="g650" />
    <g
       id="g652" />
    <g
       id="g654" />
    <g
       id="g656" />
    <g
       id="g658" />
    <g
       id="g660" />
    <g
       id="g662" />
    <g
       id="g664" />
    <g
       id="g666" />
    <g
       id="g668">
      <text
         xml:space="preserve"
         transform="matrix(1,0,0,-1,326.48,201.19)"
         style="font-variant:normal;font-weight:normal;font-size:13px;font-family:Helvetica;-inkscape-font-specification:Helvetica;writing-mode:lr-tb;fill:#000000;fill-opacity:1;fill-rule:nonzero;stroke:none"
         id="text672"><tspan
           x="0 10.829 18.056999 28.886 36.113998 40.833 47.333 50.946999 60.333 63.946999 66.833 69.719002 72.605003 79.105003 86.333 89.946999 92.833 100.061"
           y="0"
           id="tspan670">Memory Utilization</tspan></text>
    </g>
    <g
       id="g674" />
    <g
       id="g676" />
    <g
       id="g678" />
    <g
       id="g680" />
    <g
       id="g682" />
    <g
       id="g684" />
    <g
       id="g686" />
    <g
       id="g688" />
    <g
       id="g690" />
    <g
       id="g692" />
    <g
       id="g694" />
    <g
       id="g696" />
    <g
       id="g698" />
    <g
       id="g700" />
    <g
       id="g702" />
    <g
       id="g704" />
    <g
       id="g706" />
    <g
       id="g708" />
    <g
       id="g710" />
    <g
       id="g712" />
    <g
       id="g714" />
    <g
       id="g716" />
    <g
       id="g718" />
    <g
       id="g720" />
    <g
       id="g722" />
    <g
       id="g724" />
    <g
       id="g726" />
    <g
       id="g728" />
    <g
       id="g730" />
    <g
       id="g732" />
    <g
       id="g734" />
    <g
       id="g736" />
    <g
       id="g738" />
    <g
       id="g740" />
    <g
       id="g742" />
    <g
       id="g744" />
    <g
       id="g746" />
    <g
       id="g748" />
    <g
       id="g750" />
    <g
       id="g752" />
    <g
       id="g754" />
    <g
       id="g756" />
    <g
       id="g758" />
    <g
       id="g760" />
    <g
       id="g762" />
    <g
       id="g764" />
    <g
       id="g766" />
    <g
       id="g768" />
  </g>
</svg>
