<?xml version="1.0" encoding="UTF-8" standalone="no"?>
<!-- Created with Inkscape (http://www.inkscape.org/) -->

<svg
   version="1.1"
   id="svg2"
   width="768"
   height="288"
   viewBox="0 0 768 288"
   xmlns="http://www.w3.org/2000/svg"
   xmlns:svg="http://www.w3.org/2000/svg">
  <defs
     id="defs6">
    <clipPath
       clipPathUnits="userSpaceOnUse"
       id="clipPath28">
      <path
         d="M 0,0 H 288 V 216 H 0 Z"
         id="path26" />
    </clipPath>
    <clipPath
       clipPathUnits="userSpaceOnUse"
       id="clipPath38">
      <path
         d="M 33.48,31.91 H 282.52 V 192.85 H 33.48 Z"
         id="path36" />
    </clipPath>
    <clipPath
       clipPathUnits="userSpaceOnUse"
       id="clipPath102">
      <path
         d="M 33.48,31.91 H 282.52 V 192.85 H 33.48 Z"
         id="path100" />
    </clipPath>
    <clipPath
       clipPathUnits="userSpaceOnUse"
       id="clipPath114">
      <path
         d="M 33.48,31.91 H 282.52 V 192.85 H 33.48 Z"
         id="path112" />
    </clipPath>
    <clipPath
       clipPathUnits="userSpaceOnUse"
       id="clipPath124">
      <path
         d="M 33.48,31.91 H 282.52 V 192.85 H 33.48 Z"
         id="path122" />
    </clipPath>
    <clipPath
       clipPathUnits="userSpaceOnUse"
       id="clipPath136">
      <path
         d="M 33.48,31.91 H 282.52 V 192.85 H 33.48 Z"
         id="path134" />
    </clipPath>
    <clipPath
       clipPathUnits="userSpaceOnUse"
       id="clipPath146">
      <path
         d="M 33.48,31.91 H 282.52 V 192.85 H 33.48 Z"
         id="path144" />
    </clipPath>
    <clipPath
       clipPathUnits="userSpaceOnUse"
       id="clipPath158">
      <path
         d="M 33.48,31.91 H 282.52 V 192.85 H 33.48 Z"
         id="path156" />
    </clipPath>
    <clipPath
       clipPathUnits="userSpaceOnUse"
       id="clipPath168">
      <path
         d="M 33.48,31.91 H 282.52 V 192.85 H 33.48 Z"
         id="path166" />
    </clipPath>
    <clipPath
       clipPathUnits="userSpaceOnUse"
       id="clipPath180">
      <path
         d="M 33.48,31.91 H 282.52 V 192.85 H 33.48 Z"
         id="path178" />
    </clipPath>
    <clipPath
       clipPathUnits="userSpaceOnUse"
       id="clipPath352">
      <path
         d="M 288,0 H 576 V 216 H 288 Z"
         id="path350" />
    </clipPath>
    <clipPath
       clipPathUnits="userSpaceOnUse"
       id="clipPath362">
      <path
         d="M 316.47,31.91 H 514.84 V 192.85 H 316.47 Z"
         id="path360" />
    </clipPath>
  </defs>
  <g
     id="g8"
     transform="matrix(1.3333333,0,0,-1.3333333,0,288)">
    <g
       id="g10" />
    <g
       id="g12" />
    <g
       id="g14" />
    <g
       id="g16" />
    <g
       id="g18" />
    <g
       id="g20" />
    <g
       id="g22">
      <g
         id="g24"
         clip-path="url(#clipPath28)" />
    </g>
    <g
       id="g30" />
    <g
       id="g32">
      <g
         id="g34"
         clip-path="url(#clipPath38)">
        <path
           d="M 33.48,63.15 H 282.52"
           style="fill:none;stroke:#ebebeb;stroke-width:0.53;stroke-linecap:butt;stroke-linejoin:round;stroke-miterlimit:10;stroke-dasharray:none;stroke-opacity:1"
           id="path40" />
        <path
           d="M 33.48,111 H 282.52"
           style="fill:none;stroke:#ebebeb;stroke-width:0.53;stroke-linecap:butt;stroke-linejoin:round;stroke-miterlimit:10;stroke-dasharray:none;stroke-opacity:1"
           id="path42" />
        <path
           d="M 33.48,158.86 H 282.52"
           style="fill:none;stroke:#ebebeb;stroke-width:0.53;stroke-linecap:butt;stroke-linejoin:round;stroke-miterlimit:10;stroke-dasharray:none;stroke-opacity:1"
           id="path44" />
        <path
           d="M 33.48,39.23 H 282.52"
           style="fill:none;stroke:#ebebeb;stroke-width:1.07;stroke-linecap:butt;stroke-linejoin:round;stroke-miterlimit:10;stroke-dasharray:none;stroke-opacity:1"
           id="path46" />
        <path
           d="M 33.48,87.08 H 282.52"
           style="fill:none;stroke:#ebebeb;stroke-width:1.07;stroke-linecap:butt;stroke-linejoin:round;stroke-miterlimit:10;stroke-dasharray:none;stroke-opacity:1"
           id="path48" />
        <path
           d="M 33.48,134.93 H 282.52"
           style="fill:none;stroke:#ebebeb;stroke-width:1.07;stroke-linecap:butt;stroke-linejoin:round;stroke-miterlimit:10;stroke-dasharray:none;stroke-opacity:1"
           id="path50" />
        <path
           d="M 33.48,182.78 H 282.52"
           style="fill:none;stroke:#ebebeb;stroke-width:1.07;stroke-linecap:butt;stroke-linejoin:round;stroke-miterlimit:10;stroke-dasharray:none;stroke-opacity:1"
           id="path52" />
        <path
           d="M 69.05,31.91 V 192.85"
           style="fill:none;stroke:#ebebeb;stroke-width:1.07;stroke-linecap:butt;stroke-linejoin:round;stroke-miterlimit:10;stroke-dasharray:none;stroke-opacity:1"
           id="path54" />
        <path
           d="M 128.35,31.91 V 192.85"
           style="fill:none;stroke:#ebebeb;stroke-width:1.07;stroke-linecap:butt;stroke-linejoin:round;stroke-miterlimit:10;stroke-dasharray:none;stroke-opacity:1"
           id="path56" />
        <path
           d="M 187.65,31.91 V 192.85"
           style="fill:none;stroke:#ebebeb;stroke-width:1.07;stroke-linecap:butt;stroke-linejoin:round;stroke-miterlimit:10;stroke-dasharray:none;stroke-opacity:1"
           id="path58" />
        <path
           d="M 246.94,31.91 V 192.85"
           style="fill:none;stroke:#ebebeb;stroke-width:1.07;stroke-linecap:butt;stroke-linejoin:round;stroke-miterlimit:10;stroke-dasharray:none;stroke-opacity:1"
           id="path60" />
        <path
           d="M 46.82,39.23 H 91.29 V 85.15 H 46.82 Z"
           style="fill:#dae8fc;fill-opacity:1;fill-rule:nonzero;stroke:none"
           id="path62" />
        <path
           d="m 106.11,39.23 h 44.47 v 45.74 h -44.47 z"
           style="fill:#d5e8d4;fill-opacity:1;fill-rule:nonzero;stroke:none"
           id="path64" />
        <path
           d="m 165.41,39.23 h 44.47 v 44.82 h -44.47 z"
           style="fill:#d5e8d4;fill-opacity:1;fill-rule:nonzero;stroke:none"
           id="path66" />
        <path
           d="m 224.71,39.23 h 44.47 v 104.42 h -44.47 z"
           style="fill:#6d8764;fill-opacity:1;fill-rule:nonzero;stroke:none"
           id="path68" />
        <path
           d="M 60.16,86.84 H 77.95"
           style="fill:none;stroke:#0000ff;stroke-width:1.07;stroke-linecap:butt;stroke-linejoin:round;stroke-miterlimit:10;stroke-dasharray:none;stroke-opacity:1"
           id="path70" />
        <path
           d="M 69.05,86.84 V 83.45"
           style="fill:none;stroke:#0000ff;stroke-width:1.07;stroke-linecap:butt;stroke-linejoin:round;stroke-miterlimit:10;stroke-dasharray:none;stroke-opacity:1"
           id="path72" />
        <path
           d="M 60.16,83.45 H 77.95"
           style="fill:none;stroke:#0000ff;stroke-width:1.07;stroke-linecap:butt;stroke-linejoin:round;stroke-miterlimit:10;stroke-dasharray:none;stroke-opacity:1"
           id="path74" />
        <path
           d="m 119.46,86.68 h 17.78"
           style="fill:none;stroke:#0000ff;stroke-width:1.07;stroke-linecap:butt;stroke-linejoin:round;stroke-miterlimit:10;stroke-dasharray:none;stroke-opacity:1"
           id="path76" />
        <path
           d="M 128.35,86.68 V 83.25"
           style="fill:none;stroke:#0000ff;stroke-width:1.07;stroke-linecap:butt;stroke-linejoin:round;stroke-miterlimit:10;stroke-dasharray:none;stroke-opacity:1"
           id="path78" />
        <path
           d="m 119.46,83.25 h 17.78"
           style="fill:none;stroke:#0000ff;stroke-width:1.07;stroke-linecap:butt;stroke-linejoin:round;stroke-miterlimit:10;stroke-dasharray:none;stroke-opacity:1"
           id="path80" />
        <path
           d="m 178.75,85.2 h 17.79"
           style="fill:none;stroke:#0000ff;stroke-width:1.07;stroke-linecap:butt;stroke-linejoin:round;stroke-miterlimit:10;stroke-dasharray:none;stroke-opacity:1"
           id="path82" />
        <path
           d="M 187.65,85.2 V 82.89"
           style="fill:none;stroke:#0000ff;stroke-width:1.07;stroke-linecap:butt;stroke-linejoin:round;stroke-miterlimit:10;stroke-dasharray:none;stroke-opacity:1"
           id="path84" />
        <path
           d="m 178.75,82.89 h 17.79"
           style="fill:none;stroke:#0000ff;stroke-width:1.07;stroke-linecap:butt;stroke-linejoin:round;stroke-miterlimit:10;stroke-dasharray:none;stroke-opacity:1"
           id="path86" />
        <path
           d="m 238.05,143.73 h 17.79"
           style="fill:none;stroke:#0000ff;stroke-width:1.07;stroke-linecap:butt;stroke-linejoin:round;stroke-miterlimit:10;stroke-dasharray:none;stroke-opacity:1"
           id="path88" />
        <path
           d="m 246.94,143.73 v -0.16"
           style="fill:none;stroke:#0000ff;stroke-width:1.07;stroke-linecap:butt;stroke-linejoin:round;stroke-miterlimit:10;stroke-dasharray:none;stroke-opacity:1"
           id="path90" />
        <path
           d="m 238.05,143.57 h 17.79"
           style="fill:none;stroke:#0000ff;stroke-width:1.07;stroke-linecap:butt;stroke-linejoin:round;stroke-miterlimit:10;stroke-dasharray:none;stroke-opacity:1"
           id="path92" />
        <path
           d="m 55.5,92.41 h 27.11 -0.08 l 0.32,0.01 0.31,0.06 0.3,0.12 0.28,0.16 0.25,0.2 0.21,0.24 0.17,0.27 0.13,0.29 0.07,0.31 0.03,0.32 v 0 10.55 0 l -0.03,0.32 -0.07,0.31 -0.13,0.29 -0.17,0.27 -0.21,0.24 -0.25,0.21 -0.28,0.16 -0.3,0.11 -0.31,0.06 -0.24,0.02 H 55.5 l 0.24,-0.02 -0.32,0.02 -0.32,-0.04 -0.31,-0.09 -0.29,-0.14 -0.26,-0.18 -0.23,-0.22 -0.19,-0.26 -0.15,-0.28 -0.1,-0.3 -0.05,-0.32 -0.01,-0.16 V 94.39 l 0.01,0.16 v -0.32 l 0.05,-0.31 0.1,-0.31 0.15,-0.28 0.19,-0.25 0.23,-0.23 0.26,-0.18 0.29,-0.14 0.31,-0.08 0.32,-0.04 z"
           style="fill:#ffffff;fill-opacity:1;fill-rule:nonzero;stroke:#000000;stroke-width:0.53;stroke-linecap:round;stroke-linejoin:round;stroke-miterlimit:10;stroke-dasharray:none;stroke-opacity:1"
           id="path94" />
      </g>
    </g>
    <g
       id="g96">
      <g
         id="g98"
         clip-path="url(#clipPath102)">
        <text
           xml:space="preserve"
           transform="matrix(1,0,0,-1,59.878,95.72)"
           style="font-variant:normal;font-weight:normal;font-size:11px;font-family:Helvetica;-inkscape-font-specification:Helvetica;writing-mode:lr-tb;fill:#000000;fill-opacity:1;fill-rule:nonzero;stroke:none"
           id="text106"><tspan
             x="0 6.1160002 9.1739998 15.29"
             y="0"
             id="tspan104">9.60</tspan></text>
      </g>
    </g>
    <g
       id="g108">
      <g
         id="g110"
         clip-path="url(#clipPath114)">
        <path
           d="m 114.79,92.22 h 27.12 l -0.08,0.01 0.32,0.01 0.31,0.06 0.3,0.12 0.28,0.16 0.24,0.2 0.22,0.24 0.17,0.27 0.12,0.29 0.08,0.31 0.02,0.32 v 0 10.55 0 l -0.02,0.32 -0.08,0.31 -0.12,0.29 -0.17,0.27 -0.22,0.24 -0.24,0.2 -0.28,0.16 -0.3,0.12 -0.31,0.06 -0.24,0.02 h -27.12 l 0.24,-0.02 -0.32,0.01 -0.31,-0.03 -0.31,-0.09 -0.29,-0.14 -0.26,-0.18 -0.23,-0.22 -0.2,-0.26 -0.14,-0.28 -0.11,-0.31 -0.05,-0.31 v -0.16 -10.55 0.16 -0.32 l 0.05,-0.31 0.11,-0.31 0.14,-0.28 0.2,-0.26 0.23,-0.22 0.26,-0.18 0.29,-0.14 0.31,-0.09 0.31,-0.03 z"
           style="fill:#ffffff;fill-opacity:1;fill-rule:nonzero;stroke:#000000;stroke-width:0.53;stroke-linecap:round;stroke-linejoin:round;stroke-miterlimit:10;stroke-dasharray:none;stroke-opacity:1"
           id="path116" />
      </g>
    </g>
    <g
       id="g118">
      <g
         id="g120"
         clip-path="url(#clipPath124)">
        <text
           xml:space="preserve"
           transform="matrix(1,0,0,-1,119.178,95.54)"
           style="font-variant:normal;font-weight:normal;font-size:11px;font-family:Helvetica;-inkscape-font-specification:Helvetica;writing-mode:lr-tb;fill:#000000;fill-opacity:1;fill-rule:nonzero;stroke:none"
           id="text128"><tspan
             x="0 6.1160002 9.1739998 15.29"
             y="0"
             id="tspan126">9.56</tspan></text>
      </g>
    </g>
    <g
       id="g130">
      <g
         id="g132"
         clip-path="url(#clipPath136)">
        <path
           d="m 174.09,91.31 h 27.11 -0.08 l 0.32,0.01 0.32,0.06 0.3,0.12 0.27,0.16 0.25,0.2 0.21,0.24 0.17,0.27 0.13,0.29 0.07,0.31 0.03,0.32 v 0 10.55 0 l -0.03,0.32 -0.07,0.31 -0.13,0.29 -0.17,0.27 -0.21,0.24 -0.25,0.21 -0.27,0.16 -0.3,0.11 -0.32,0.06 -0.24,0.02 h -27.11 l 0.24,-0.02 -0.32,0.02 -0.32,-0.04 -0.3,-0.09 -0.29,-0.14 -0.27,-0.18 -0.23,-0.22 -0.19,-0.26 -0.15,-0.28 -0.1,-0.3 -0.05,-0.32 -0.01,-0.16 V 93.29 l 0.01,0.16 v -0.32 l 0.05,-0.31 0.1,-0.31 0.15,-0.28 0.19,-0.26 0.23,-0.22 0.27,-0.18 0.29,-0.14 0.3,-0.08 0.32,-0.04 z"
           style="fill:#ffffff;fill-opacity:1;fill-rule:nonzero;stroke:#000000;stroke-width:0.53;stroke-linecap:round;stroke-linejoin:round;stroke-miterlimit:10;stroke-dasharray:none;stroke-opacity:1"
           id="path138" />
      </g>
    </g>
    <g
       id="g140">
      <g
         id="g142"
         clip-path="url(#clipPath146)">
        <text
           xml:space="preserve"
           transform="matrix(1,0,0,-1,178.468,94.62)"
           style="font-variant:normal;font-weight:normal;font-size:11px;font-family:Helvetica;-inkscape-font-specification:Helvetica;writing-mode:lr-tb;fill:#000000;fill-opacity:1;fill-rule:nonzero;stroke:none"
           id="text150"><tspan
             x="0 6.1160002 9.1739998 15.29"
             y="0"
             id="tspan148">9.37</tspan></text>
      </g>
    </g>
    <g
       id="g152">
      <g
         id="g154"
         clip-path="url(#clipPath158)">
        <path
           d="m 231.86,150.91 h 30.17 -0.08 l 0.32,0.01 0.31,0.07 0.3,0.11 0.28,0.16 0.25,0.2 0.21,0.24 0.17,0.27 0.12,0.3 0.08,0.31 0.03,0.32 v 0 10.54 0 l -0.03,0.32 -0.08,0.31 -0.12,0.3 -0.17,0.27 -0.21,0.24 -0.25,0.2 -0.28,0.16 -0.3,0.11 -0.31,0.07 -0.24,0.01 h -30.17 l 0.24,-0.01 -0.32,0.01 -0.32,-0.04 -0.31,-0.09 -0.29,-0.13 -0.26,-0.19 -0.23,-0.22 -0.19,-0.25 -0.15,-0.29 -0.1,-0.3 -0.05,-0.32 -0.01,-0.16 V 152.9 l 0.01,0.16 v -0.32 l 0.05,-0.32 0.1,-0.3 0.15,-0.29 0.19,-0.25 0.23,-0.22 0.26,-0.18 0.29,-0.14 0.31,-0.09 0.32,-0.04 z"
           style="fill:#ffffff;fill-opacity:1;fill-rule:nonzero;stroke:#000000;stroke-width:0.53;stroke-linecap:round;stroke-linejoin:round;stroke-miterlimit:10;stroke-dasharray:none;stroke-opacity:1"
           id="path160" />
      </g>
    </g>
    <g
       id="g162">
      <g
         id="g164"
         clip-path="url(#clipPath168)">
        <text
           xml:space="preserve"
           transform="matrix(1,0,0,-1,233.18,154.22)"
           style="font-variant:normal;font-weight:normal;font-size:11px;font-family:Helvetica;-inkscape-font-specification:Helvetica;writing-mode:lr-tb;fill:#000000;fill-opacity:1;fill-rule:nonzero;stroke:none"
           id="text172"><tspan
             x="0 6.1160002 12.232 15.29 21.406"
             y="0"
             id="tspan170">21.82</tspan></text>
      </g>
    </g>
    <g
       id="g174">
      <g
         id="g176"
         clip-path="url(#clipPath180)" />
    </g>
    <g
       id="g182" />
    <g
       id="g184" />
    <g
       id="g186" />
    <g
       id="g188" />
    <g
       id="g190" />
    <g
       id="g192" />
    <g
       id="g194" />
    <g
       id="g196" />
    <g
       id="g198" />
    <g
       id="g200" />
    <g
       id="g202" />
    <g
       id="g204" />
    <g
       id="g206">
      <text
         xml:space="preserve"
         transform="matrix(1,0,0,-1,23.54,35.99)"
         style="font-variant:normal;font-weight:normal;font-size:9px;font-family:Helvetica;-inkscape-font-specification:Helvetica;writing-mode:lr-tb;fill:#4d4d4d;fill-opacity:1;fill-rule:nonzero;stroke:none"
         id="text210"><tspan
           x="0"
           y="0"
           id="tspan208">0</tspan></text>
      <text
         xml:space="preserve"
         transform="matrix(1,0,0,-1,18.54,83.85)"
         style="font-variant:normal;font-weight:normal;font-size:9px;font-family:Helvetica;-inkscape-font-specification:Helvetica;writing-mode:lr-tb;fill:#4d4d4d;fill-opacity:1;fill-rule:nonzero;stroke:none"
         id="text214"><tspan
           x="0 5.0040002"
           y="0"
           id="tspan212">10</tspan></text>
      <text
         xml:space="preserve"
         transform="matrix(1,0,0,-1,18.54,131.7)"
         style="font-variant:normal;font-weight:normal;font-size:9px;font-family:Helvetica;-inkscape-font-specification:Helvetica;writing-mode:lr-tb;fill:#4d4d4d;fill-opacity:1;fill-rule:nonzero;stroke:none"
         id="text218"><tspan
           x="0 5.0040002"
           y="0"
           id="tspan216">20</tspan></text>
      <text
         xml:space="preserve"
         transform="matrix(1,0,0,-1,18.54,179.55)"
         style="font-variant:normal;font-weight:normal;font-size:9px;font-family:Helvetica;-inkscape-font-specification:Helvetica;writing-mode:lr-tb;fill:#4d4d4d;fill-opacity:1;fill-rule:nonzero;stroke:none"
         id="text222"><tspan
           x="0 5.0040002"
           y="0"
           id="tspan220">30</tspan></text>
    </g>
    <g
       id="g224" />
    <g
       id="g226" />
    <g
       id="g228" />
    <g
       id="g230" />
    <g
       id="g232" />
    <g
       id="g234" />
    <g
       id="g236" />
    <g
       id="g238" />
    <g
       id="g240" />
    <g
       id="g242" />
    <g
       id="g244" />
    <g
       id="g246" />
    <g
       id="g248" />
    <g
       id="g250">
      <text
         xml:space="preserve"
         transform="matrix(1,0,0,-1,55.8,20.52)"
         style="font-variant:normal;font-weight:normal;font-size:9px;font-family:Helvetica;-inkscape-font-specification:Helvetica;writing-mode:lr-tb;fill:#4d4d4d;fill-opacity:1;fill-rule:nonzero;stroke:none"
         id="text254"><tspan
           x="0 4.5 6.4980001 11.502 16.506001 21.51"
           y="0"
           id="tspan252">cloud1</tspan></text>
      <text
         xml:space="preserve"
         transform="matrix(1,0,0,-1,119.73,20.52)"
         style="font-variant:normal;font-weight:normal;font-size:9px;font-family:Helvetica;-inkscape-font-specification:Helvetica;writing-mode:lr-tb;fill:#4d4d4d;fill-opacity:1;fill-rule:nonzero;stroke:none"
         id="text258"><tspan
           x="0 2.2320001 7.2360001 12.24"
           y="0"
           id="tspan256">fog1</tspan></text>
      <text
         xml:space="preserve"
         transform="matrix(1,0,0,-1,179.02,20.52)"
         style="font-variant:normal;font-weight:normal;font-size:9px;font-family:Helvetica;-inkscape-font-specification:Helvetica;writing-mode:lr-tb;fill:#4d4d4d;fill-opacity:1;fill-rule:nonzero;stroke:none"
         id="text262"><tspan
           x="0 2.2320001 7.2360001 12.24"
           y="0"
           id="tspan260">fog2</tspan></text>
      <text
         xml:space="preserve"
         transform="matrix(1,0,0,-1,238.32,20.52)"
         style="font-variant:normal;font-weight:normal;font-size:9px;font-family:Helvetica;-inkscape-font-specification:Helvetica;writing-mode:lr-tb;fill:#4d4d4d;fill-opacity:1;fill-rule:nonzero;stroke:none"
         id="text266"><tspan
           x="0 2.2320001 7.2360001 12.24"
           y="0"
           id="tspan264">fog3</tspan></text>
    </g>
    <g
       id="g268" />
    <g
       id="g270" />
    <g
       id="g272" />
    <g
       id="g274" />
    <g
       id="g276" />
    <g
       id="g278" />
    <g
       id="g280" />
    <g
       id="g282" />
    <g
       id="g284">
      <text
         xml:space="preserve"
         transform="matrix(1,0,0,-1,144.85,7.9)"
         style="font-variant:normal;font-weight:normal;font-size:11px;font-family:Helvetica;-inkscape-font-specification:Helvetica;writing-mode:lr-tb;fill:#000000;fill-opacity:1;fill-rule:nonzero;stroke:none"
         id="text288"><tspan
           x="0 7.9419999 14.058 20.174"
           y="0"
           id="tspan286">Node</tspan></text>
    </g>
    <g
       id="g290" />
    <g
       id="g292">
      <text
         xml:space="preserve"
         transform="matrix(0,1,1,0,13.38,78.46)"
         style="font-variant:normal;font-weight:normal;font-size:11px;font-family:Helvetica;-inkscape-font-specification:Helvetica;writing-mode:lr-tb;fill:#000000;fill-opacity:1;fill-rule:nonzero;stroke:none"
         id="text296"><tspan
           x="0 7.9419999 11 13.442 15.884 18.326 23.826 29.941999 33 35.442001 41.557999 47.674 50.731998 54.395 64.174004"
           y="0"
           id="tspan294">Utilization (%)</tspan></text>
    </g>
    <g
       id="g298" />
    <g
       id="g300" />
    <g
       id="g302" />
    <g
       id="g304" />
    <g
       id="g306" />
    <g
       id="g308" />
    <g
       id="g310" />
    <g
       id="g312" />
    <g
       id="g314" />
    <g
       id="g316" />
    <g
       id="g318" />
    <g
       id="g320" />
    <g
       id="g322" />
    <g
       id="g324" />
    <g
       id="g326" />
    <g
       id="g328">
      <text
         xml:space="preserve"
         transform="matrix(1,0,0,-1,33.48,201.19)"
         style="font-variant:normal;font-weight:normal;font-size:13px;font-family:Helvetica;-inkscape-font-specification:Helvetica;writing-mode:lr-tb;fill:#000000;fill-opacity:1;fill-rule:nonzero;stroke:none"
         id="text332"><tspan
           x="0 8.6709995 12.285 19.513 23.712 30.940001 38.167999 45.396 49.009998 58.396 62.009998 64.896004 67.781998 70.667999 77.167999 84.396004 88.010002 90.896004 98.124001"
           y="0"
           id="tspan330">Storage Utilization</tspan></text>
    </g>
    <g
       id="g334" />
    <g
       id="g336" />
    <g
       id="g338" />
    <g
       id="g340" />
    <g
       id="g342" />
    <g
       id="g344" />
    <g
       id="g346">
      <g
         id="g348"
         clip-path="url(#clipPath352)" />
    </g>
    <g
       id="g354" />
    <g
       id="g356">
      <g
         id="g358"
         clip-path="url(#clipPath362)">
        <path
           d="M 316.47,64.4 H 514.85"
           style="fill:none;stroke:#ebebeb;stroke-width:0.53;stroke-linecap:butt;stroke-linejoin:round;stroke-miterlimit:10;stroke-dasharray:none;stroke-opacity:1"
           id="path364" />
        <path
           d="M 316.47,114.74 H 514.85"
           style="fill:none;stroke:#ebebeb;stroke-width:0.53;stroke-linecap:butt;stroke-linejoin:round;stroke-miterlimit:10;stroke-dasharray:none;stroke-opacity:1"
           id="path366" />
        <path
           d="M 316.47,165.08 H 514.85"
           style="fill:none;stroke:#ebebeb;stroke-width:0.53;stroke-linecap:butt;stroke-linejoin:round;stroke-miterlimit:10;stroke-dasharray:none;stroke-opacity:1"
           id="path368" />
        <path
           d="M 316.47,39.23 H 514.85"
           style="fill:none;stroke:#ebebeb;stroke-width:1.07;stroke-linecap:butt;stroke-linejoin:round;stroke-miterlimit:10;stroke-dasharray:none;stroke-opacity:1"
           id="path370" />
        <path
           d="M 316.47,89.57 H 514.85"
           style="fill:none;stroke:#ebebeb;stroke-width:1.07;stroke-linecap:butt;stroke-linejoin:round;stroke-miterlimit:10;stroke-dasharray:none;stroke-opacity:1"
           id="path372" />
        <path
           d="M 316.47,139.91 H 514.85"
           style="fill:none;stroke:#ebebeb;stroke-width:1.07;stroke-linecap:butt;stroke-linejoin:round;stroke-miterlimit:10;stroke-dasharray:none;stroke-opacity:1"
           id="path374" />
        <path
           d="M 316.47,190.25 H 514.85"
           style="fill:none;stroke:#ebebeb;stroke-width:1.07;stroke-linecap:butt;stroke-linejoin:round;stroke-miterlimit:10;stroke-dasharray:none;stroke-opacity:1"
           id="path376" />
        <path
           d="M 344.81,31.91 V 192.85"
           style="fill:none;stroke:#ebebeb;stroke-width:1.07;stroke-linecap:butt;stroke-linejoin:round;stroke-miterlimit:10;stroke-dasharray:none;stroke-opacity:1"
           id="path378" />
        <path
           d="M 392.04,31.91 V 192.85"
           style="fill:none;stroke:#ebebeb;stroke-width:1.07;stroke-linecap:butt;stroke-linejoin:round;stroke-miterlimit:10;stroke-dasharray:none;stroke-opacity:1"
           id="path380" />
        <path
           d="M 439.27,31.91 V 192.85"
           style="fill:none;stroke:#ebebeb;stroke-width:1.07;stroke-linecap:butt;stroke-linejoin:round;stroke-miterlimit:10;stroke-dasharray:none;stroke-opacity:1"
           id="path382" />
        <path
           d="M 486.51,31.91 V 192.85"
           style="fill:none;stroke:#ebebeb;stroke-width:1.07;stroke-linecap:butt;stroke-linejoin:round;stroke-miterlimit:10;stroke-dasharray:none;stroke-opacity:1"
           id="path384" />
        <path
           d="m 326.51,39.23 h 17.71 v 94.62 h -17.71 z"
           style="fill:#dae8fc;fill-opacity:1;fill-rule:nonzero;stroke:#f8766d;stroke-width:1.07;stroke-linecap:butt;stroke-linejoin:miter;stroke-miterlimit:10;stroke-dasharray:none;stroke-opacity:1"
           id="path386" />
        <path
           d="m 345.4,39.23 h 17.71 V 134.8 H 345.4 Z"
           style="fill:#dae8fc;fill-opacity:1;fill-rule:nonzero;stroke:#00bfc4;stroke-width:1.07;stroke-linecap:butt;stroke-linejoin:miter;stroke-miterlimit:10;stroke-dasharray:none;stroke-opacity:1"
           id="path388" />
        <path
           d="m 373.74,39.23 h 17.71 v 96.33 h -17.71 z"
           style="fill:#d5e8d4;fill-opacity:1;fill-rule:nonzero;stroke:#f8766d;stroke-width:1.07;stroke-linecap:butt;stroke-linejoin:miter;stroke-miterlimit:10;stroke-dasharray:none;stroke-opacity:1"
           id="path390" />
        <path
           d="m 392.63,39.23 h 17.71 v 48 h -17.71 z"
           style="fill:#d5e8d4;fill-opacity:1;fill-rule:nonzero;stroke:#00bfc4;stroke-width:1.07;stroke-linecap:butt;stroke-linejoin:miter;stroke-miterlimit:10;stroke-dasharray:none;stroke-opacity:1"
           id="path392" />
        <path
           d="m 420.97,39.23 h 17.71 v 97.54 h -17.71 z"
           style="fill:#d5e8d4;fill-opacity:1;fill-rule:nonzero;stroke:#f8766d;stroke-width:1.07;stroke-linecap:butt;stroke-linejoin:miter;stroke-miterlimit:10;stroke-dasharray:none;stroke-opacity:1"
           id="path394" />
        <path
           d="m 439.87,39.23 h 17.71 v 48 h -17.71 z"
           style="fill:#d5e8d4;fill-opacity:1;fill-rule:nonzero;stroke:#00bfc4;stroke-width:1.07;stroke-linecap:butt;stroke-linejoin:miter;stroke-miterlimit:10;stroke-dasharray:none;stroke-opacity:1"
           id="path396" />
        <path
           d="m 468.2,39.23 h 17.71 v 0.65 H 468.2 Z"
           style="fill:#6d8764;fill-opacity:1;fill-rule:nonzero;stroke:#f8766d;stroke-width:1.07;stroke-linecap:butt;stroke-linejoin:miter;stroke-miterlimit:10;stroke-dasharray:none;stroke-opacity:1"
           id="path398" />
        <path
           d="m 487.1,39.23 h 17.71 v 92.45 H 487.1 Z"
           style="fill:#6d8764;fill-opacity:1;fill-rule:nonzero;stroke:#00bfc4;stroke-width:1.07;stroke-linecap:butt;stroke-linejoin:miter;stroke-miterlimit:10;stroke-dasharray:none;stroke-opacity:1"
           id="path400" />
        <text
           xml:space="preserve"
           transform="matrix(0,1,1,0,339.31,138.12)"
           style="font-variant:normal;font-weight:normal;font-size:11px;font-family:Helvetica;-inkscape-font-specification:Helvetica;writing-mode:lr-tb;fill:#000000;fill-opacity:1;fill-rule:nonzero;stroke:none"
           id="text404"><tspan
             x="0 6.1160002 9.1739998 15.29"
             y="0"
             id="tspan402">3.76</tspan></text>
        <text
           xml:space="preserve"
           transform="matrix(0,1,1,0,358.21,139.08)"
           style="font-variant:normal;font-weight:normal;font-size:11px;font-family:Helvetica;-inkscape-font-specification:Helvetica;writing-mode:lr-tb;fill:#000000;fill-opacity:1;fill-rule:nonzero;stroke:none"
           id="text408"><tspan
             x="0 6.1160002 9.1739998 15.29"
             y="0"
             id="tspan406">3.80</tspan></text>
        <text
           xml:space="preserve"
           transform="matrix(0,1,1,0,386.55,139.84)"
           style="font-variant:normal;font-weight:normal;font-size:11px;font-family:Helvetica;-inkscape-font-specification:Helvetica;writing-mode:lr-tb;fill:#000000;fill-opacity:1;fill-rule:nonzero;stroke:none"
           id="text412"><tspan
             x="0 6.1160002 9.1739998 15.29"
             y="0"
             id="tspan410">3.83</tspan></text>
        <text
           xml:space="preserve"
           transform="matrix(0,1,1,0,405.44,91.51)"
           style="font-variant:normal;font-weight:normal;font-size:11px;font-family:Helvetica;-inkscape-font-specification:Helvetica;writing-mode:lr-tb;fill:#000000;fill-opacity:1;fill-rule:nonzero;stroke:none"
           id="text416"><tspan
             x="0 6.1160002 9.1739998 15.29"
             y="0"
             id="tspan414">1.91</tspan></text>
        <text
           xml:space="preserve"
           transform="matrix(0,1,1,0,433.78,141.04)"
           style="font-variant:normal;font-weight:normal;font-size:11px;font-family:Helvetica;-inkscape-font-specification:Helvetica;writing-mode:lr-tb;fill:#000000;fill-opacity:1;fill-rule:nonzero;stroke:none"
           id="text420"><tspan
             x="0 6.1160002 9.1739998 15.29"
             y="0"
             id="tspan418">3.88</tspan></text>
        <text
           xml:space="preserve"
           transform="matrix(0,1,1,0,452.67,91.51)"
           style="font-variant:normal;font-weight:normal;font-size:11px;font-family:Helvetica;-inkscape-font-specification:Helvetica;writing-mode:lr-tb;fill:#000000;fill-opacity:1;fill-rule:nonzero;stroke:none"
           id="text424"><tspan
             x="0 6.1160002 9.1739998 15.29"
             y="0"
             id="tspan422">1.91</tspan></text>
        <text
           xml:space="preserve"
           transform="matrix(0,1,1,0,481.01,44.16)"
           style="font-variant:normal;font-weight:normal;font-size:11px;font-family:Helvetica;-inkscape-font-specification:Helvetica;writing-mode:lr-tb;fill:#000000;fill-opacity:1;fill-rule:nonzero;stroke:none"
           id="text428"><tspan
             x="0 6.1160002 9.1739998 15.29"
             y="0"
             id="tspan426">0.03</tspan></text>
        <text
           xml:space="preserve"
           transform="matrix(0,1,1,0,499.9,135.96)"
           style="font-variant:normal;font-weight:normal;font-size:11px;font-family:Helvetica;-inkscape-font-specification:Helvetica;writing-mode:lr-tb;fill:#000000;fill-opacity:1;fill-rule:nonzero;stroke:none"
           id="text432"><tspan
             x="0 6.1160002 9.1739998 15.29"
             y="0"
             id="tspan430">3.67</tspan></text>
      </g>
    </g>
    <g
       id="g434" />
    <g
       id="g436" />
    <g
       id="g438" />
    <g
       id="g440" />
    <g
       id="g442" />
    <g
       id="g444" />
    <g
       id="g446" />
    <g
       id="g448" />
    <g
       id="g450" />
    <g
       id="g452" />
    <g
       id="g454" />
    <g
       id="g456" />
    <g
       id="g458">
      <text
         xml:space="preserve"
         transform="matrix(1,0,0,-1,306.54,35.99)"
         style="font-variant:normal;font-weight:normal;font-size:9px;font-family:Helvetica;-inkscape-font-specification:Helvetica;writing-mode:lr-tb;fill:#4d4d4d;fill-opacity:1;fill-rule:nonzero;stroke:none"
         id="text462"><tspan
           x="0"
           y="0"
           id="tspan460">0</tspan></text>
      <text
         xml:space="preserve"
         transform="matrix(1,0,0,-1,306.54,86.34)"
         style="font-variant:normal;font-weight:normal;font-size:9px;font-family:Helvetica;-inkscape-font-specification:Helvetica;writing-mode:lr-tb;fill:#4d4d4d;fill-opacity:1;fill-rule:nonzero;stroke:none"
         id="text466"><tspan
           x="0"
           y="0"
           id="tspan464">2</tspan></text>
      <text
         xml:space="preserve"
         transform="matrix(1,0,0,-1,306.54,136.68)"
         style="font-variant:normal;font-weight:normal;font-size:9px;font-family:Helvetica;-inkscape-font-specification:Helvetica;writing-mode:lr-tb;fill:#4d4d4d;fill-opacity:1;fill-rule:nonzero;stroke:none"
         id="text470"><tspan
           x="0"
           y="0"
           id="tspan468">4</tspan></text>
      <text
         xml:space="preserve"
         transform="matrix(1,0,0,-1,306.54,187.02)"
         style="font-variant:normal;font-weight:normal;font-size:9px;font-family:Helvetica;-inkscape-font-specification:Helvetica;writing-mode:lr-tb;fill:#4d4d4d;fill-opacity:1;fill-rule:nonzero;stroke:none"
         id="text474"><tspan
           x="0"
           y="0"
           id="tspan472">6</tspan></text>
    </g>
    <g
       id="g476" />
    <g
       id="g478" />
    <g
       id="g480" />
    <g
       id="g482" />
    <g
       id="g484" />
    <g
       id="g486" />
    <g
       id="g488" />
    <g
       id="g490" />
    <g
       id="g492" />
    <g
       id="g494" />
    <g
       id="g496" />
    <g
       id="g498" />
    <g
       id="g500" />
    <g
       id="g502">
      <text
         xml:space="preserve"
         transform="matrix(1,0,0,-1,331.55,20.52)"
         style="font-variant:normal;font-weight:normal;font-size:9px;font-family:Helvetica;-inkscape-font-specification:Helvetica;writing-mode:lr-tb;fill:#4d4d4d;fill-opacity:1;fill-rule:nonzero;stroke:none"
         id="text506"><tspan
           x="0 4.5 6.4980001 11.502 16.506001 21.51"
           y="0"
           id="tspan504">cloud1</tspan></text>
      <text
         xml:space="preserve"
         transform="matrix(1,0,0,-1,383.42,20.52)"
         style="font-variant:normal;font-weight:normal;font-size:9px;font-family:Helvetica;-inkscape-font-specification:Helvetica;writing-mode:lr-tb;fill:#4d4d4d;fill-opacity:1;fill-rule:nonzero;stroke:none"
         id="text510"><tspan
           x="0 2.2320001 7.2360001 12.24"
           y="0"
           id="tspan508">fog1</tspan></text>
      <text
         xml:space="preserve"
         transform="matrix(1,0,0,-1,430.65,20.52)"
         style="font-variant:normal;font-weight:normal;font-size:9px;font-family:Helvetica;-inkscape-font-specification:Helvetica;writing-mode:lr-tb;fill:#4d4d4d;fill-opacity:1;fill-rule:nonzero;stroke:none"
         id="text514"><tspan
           x="0 2.2320001 7.2360001 12.24"
           y="0"
           id="tspan512">fog2</tspan></text>
      <text
         xml:space="preserve"
         transform="matrix(1,0,0,-1,477.88,20.52)"
         style="font-variant:normal;font-weight:normal;font-size:9px;font-family:Helvetica;-inkscape-font-specification:Helvetica;writing-mode:lr-tb;fill:#4d4d4d;fill-opacity:1;fill-rule:nonzero;stroke:none"
         id="text518"><tspan
           x="0 2.2320001 7.2360001 12.24"
           y="0"
           id="tspan516">fog3</tspan></text>
    </g>
    <g
       id="g520" />
    <g
       id="g522" />
    <g
       id="g524" />
    <g
       id="g526" />
    <g
       id="g528" />
    <g
       id="g530" />
    <g
       id="g532" />
    <g
       id="g534" />
    <g
       id="g536">
      <text
         xml:space="preserve"
         transform="matrix(1,0,0,-1,402.51,7.9)"
         style="font-variant:normal;font-weight:normal;font-size:11px;font-family:Helvetica;-inkscape-font-specification:Helvetica;writing-mode:lr-tb;fill:#000000;fill-opacity:1;fill-rule:nonzero;stroke:none"
         id="text540"><tspan
           x="0 7.9419999 14.058 20.174"
           y="0"
           id="tspan538">Node</tspan></text>
    </g>
    <g
       id="g542" />
    <g
       id="g544">
      <text
         xml:space="preserve"
         transform="matrix(0,1,1,0,301.38,82.53)"
         style="font-variant:normal;font-weight:normal;font-size:11px;font-family:Helvetica;-inkscape-font-specification:Helvetica;writing-mode:lr-tb;fill:#000000;fill-opacity:1;fill-rule:nonzero;stroke:none"
         id="text548"><tspan
           x="0 5.401 8.9540005 15.07 18.128 21.186001 23.628 29.128 32.186001 34.627998 40.743999 43.801998 52.360001"
           y="0"
           id="tspan546">Traffic in GB</tspan></text>
    </g>
    <g
       id="g550" />
    <g
       id="g552" />
    <g
       id="g554" />
    <g
       id="g556" />
    <g
       id="g558" />
    <g
       id="g560" />
    <g
       id="g562" />
    <g
       id="g564">
      <text
         xml:space="preserve"
         transform="matrix(1,0,0,-1,531.28,128.45)"
         style="font-variant:normal;font-weight:normal;font-size:11px;font-family:Helvetica;-inkscape-font-specification:Helvetica;writing-mode:lr-tb;fill:#000000;fill-opacity:1;fill-rule:nonzero;stroke:none"
         id="text568"><tspan
           x="0 5.401 8.9540005 15.07 18.128 21.186001 23.628"
           y="0"
           id="tspan566">Traffic</tspan></text>
    </g>
    <g
       id="g570" />
    <g
       id="g572" />
    <g
       id="g574" />
    <g
       id="g576">
      <path
         d="m 531.99,105.19 h 15.86 v 15.86 h -15.86 z"
         style="fill:#595959;fill-opacity:1;fill-rule:nonzero;stroke:#f8766d;stroke-width:1.07;stroke-linecap:butt;stroke-linejoin:miter;stroke-miterlimit:10;stroke-dasharray:none;stroke-opacity:1"
         id="path578" />
    </g>
    <g
       id="g580" />
    <g
       id="g582" />
    <g
       id="g584" />
    <g
       id="g586">
      <path
         d="m 531.99,87.91 h 15.86 v 15.86 h -15.86 z"
         style="fill:#595959;fill-opacity:1;fill-rule:nonzero;stroke:#00bfc4;stroke-width:1.07;stroke-linecap:butt;stroke-linejoin:miter;stroke-miterlimit:10;stroke-dasharray:none;stroke-opacity:1"
         id="path588" />
    </g>
    <g
       id="g590" />
    <g
       id="g592">
      <text
         xml:space="preserve"
         transform="matrix(1,0,0,-1,554.04,109.89)"
         style="font-variant:normal;font-weight:normal;font-size:9px;font-family:Helvetica;-inkscape-font-specification:Helvetica;writing-mode:lr-tb;fill:#000000;fill-opacity:1;fill-rule:nonzero;stroke:none"
         id="text596"><tspan
           x="0 6.4980001"
           y="0"
           id="tspan594">Rx</tspan></text>
    </g>
    <g
       id="g598" />
    <g
       id="g600">
      <text
         xml:space="preserve"
         transform="matrix(1,0,0,-1,554.04,92.61)"
         style="font-variant:normal;font-weight:normal;font-size:9px;font-family:Helvetica;-inkscape-font-specification:Helvetica;writing-mode:lr-tb;fill:#000000;fill-opacity:1;fill-rule:nonzero;stroke:none"
         id="text604"><tspan
           x="0 5.4990001"
           y="0"
           id="tspan602">Tx</tspan></text>
    </g>
    <g
       id="g606" />
    <g
       id="g608" />
    <g
       id="g610" />
    <g
       id="g612" />
    <g
       id="g614" />
    <g
       id="g616" />
    <g
       id="g618" />
    <g
       id="g620" />
    <g
       id="g622" />
    <g
       id="g624" />
    <g
       id="g626" />
    <g
       id="g628" />
    <g
       id="g630" />
    <g
       id="g632" />
    <g
       id="g634" />
    <g
       id="g636">
      <text
         xml:space="preserve"
         transform="matrix(1,0,0,-1,316.47,201.19)"
         style="font-variant:normal;font-weight:normal;font-size:13px;font-family:Helvetica;-inkscape-font-specification:Helvetica;writing-mode:lr-tb;fill:#000000;fill-opacity:1;fill-rule:nonzero;stroke:none"
         id="text640"><tspan
           x="0 6.3829999 10.582 17.809999 21.424 25.038 27.924 34.424 38.037998 47.424 54.652 61.152 68.379997 71.265999 77.441002 84.668999 91.897003 95.511002 99.839996 109.226 115.726 120.055 123.669 130.897 138.125 145.353 148.967 155.35001 159.549 166.77699 174.005 180.505 191.334 194.22 197.834 201.448 208.67599 215.90401 219.51801 223.847 231.78999 238.28999"
           y="0"
           id="tspan638">Traffic Received (Rx) and Transmitted (Tx)</tspan></text>
    </g>
    <g
       id="g642" />
    <g
       id="g644" />
    <g
       id="g646" />
    <g
       id="g648" />
    <g
       id="g650" />
    <g
       id="g652" />
    <g
       id="g654" />
    <g
       id="g656" />
    <g
       id="g658" />
    <g
       id="g660" />
    <g
       id="g662" />
    <g
       id="g664" />
    <g
       id="g666" />
    <g
       id="g668" />
    <g
       id="g670" />
    <g
       id="g672" />
    <g
       id="g674" />
    <g
       id="g676" />
    <g
       id="g678" />
    <g
       id="g680" />
    <g
       id="g682" />
    <g
       id="g684" />
    <g
       id="g686" />
    <g
       id="g688" />
    <g
       id="g690" />
    <g
       id="g692" />
    <g
       id="g694" />
    <g
       id="g696" />
    <g
       id="g698" />
    <g
       id="g700" />
    <g
       id="g702" />
    <g
       id="g704" />
    <g
       id="g706" />
    <g
       id="g708" />
    <g
       id="g710" />
    <g
       id="g712" />
    <g
       id="g714" />
    <g
       id="g716" />
    <g
       id="g718" />
    <g
       id="g720" />
    <g
       id="g722" />
    <g
       id="g724" />
    <g
       id="g726" />
    <g
       id="g728" />
    <g
       id="g730" />
    <g
       id="g732" />
    <g
       id="g734" />
    <g
       id="g736" />
  </g>
</svg>
